<?xml version="1.0" standalone="no"?>
<!DOCTYPE svg PUBLIC "-//W3C//DTD SVG 1.1//EN" "http://www.w3.org/Graphics/SVG/1.1/DTD/svg11.dtd" >
<svg xmlns="http://www.w3.org/2000/svg">
<metadata>
This is a custom SVG webfont generated by Font Squirrel.
Copyright   :  The digitally encoded machine readable software for producing the Typefaces licensed to you is copyrighted c 1990 Adobe Systems All Rights Reserved This software is the property of Adobe Systems Incorporated and its licensors and may not be reproduced used  displayed modified disclosed or transferred without the express  written approval of Adobe  The digitally encoded machine readable outline data for producing the Typefaces licensed to you is copyrighted c 1981 Linotype AG andor its subsidiaries All Rights Reserved This data is the property of Linotype AG andor its subsidiaries and may not be reproduced used displayed modified disclosed or  transferred without the express written approval of Linotype AG  andor its subsidiaries 18 Helvetica 37 Thin Condensed 43472 
</metadata>
<defs>
<font id="webfontW1LxupYy" horiz-adv-x="872" >
<font-face units-per-em="2048" ascent="1638" descent="-410" />
<missing-glyph horiz-adv-x="491" />
<glyph unicode=" "  horiz-adv-x="491" />
<glyph unicode="&#x09;" horiz-adv-x="491" />
<glyph unicode="&#xa0;" horiz-adv-x="491" />
<glyph unicode="!" horiz-adv-x="454" d="M496 1462h86l-101 -471l-141 -610h-61l116 610zM184 0l41 197h86l-41 -197h-86z" />
<glyph unicode="&#x22;" horiz-adv-x="606" d="M365 995l100 467h70l-101 -467h-69zM594 995l100 467h70l-100 -467h-70z" />
<glyph unicode="#" horiz-adv-x="983" d="M696 461h-280l-162 -461h-70l162 461h-221l14 69h230l129 365h-224l15 70h231l162 460h70l-162 -460h280l162 460h70l-162 -460h221l-14 -70h-229l-130 -365h224l-15 -69h-231l-162 -461h-69zM719 530l129 365h-281l-129 -365h281z" />
<glyph unicode="$" horiz-adv-x="983" d="M670 692l-138 -647q135 10 240 99t133 225q29 135 -20 201.5t-172 107.5zM631 799l123 581q-123 -6 -215.5 -78.5t-122.5 -214.5q-25 -119 21 -182t167 -98zM420 -197l35 172q-90 2 -154.5 28t-98.5 64.5t-50.5 93t-15.5 108t16 112.5l8 45h86l-10 -49q-66 -311 235 -332 l141 668l-65 24q-131 49 -189.5 128t-29.5 214q35 166 155.5 266.5t284.5 104.5l31 143h61l-31 -143q354 -20 279 -383h-86q61 297 -207 313l-127 -602l80 -28q145 -53 201.5 -136.5t23.5 -238.5q-39 -180 -170 -285.5t-307 -114.5l-35 -172h-61z" />
<glyph unicode="%" horiz-adv-x="1402" d="M932 338q-29 -117 -17.5 -184.5t43 -92t91.5 -24.5q86 0 145 65.5t98 235.5q29 117 17.5 184.5t-43 92t-90.5 24.5q-181 0 -244 -301zM346 -25l934 1475h70l-934 -1475h-70zM414 1087q-29 -117 -17.5 -184t43 -92t90.5 -25q86 0 145.5 66t98.5 235q29 117 17.5 184.5 t-43 92.5t-91.5 25q-180 -1 -243 -302zM862 338q78 362 328 362q139 0 177 -94t-5 -268q-78 -362 -328 -363q-96 0 -143 42t-50.5 123t21.5 198zM344 1087q76 362 326 363q141 0 179 -94t-5 -269q-78 -362 -328 -362q-96 0 -143 42t-50.5 122.5t21.5 197.5z" />
<glyph unicode="&#x26;" horiz-adv-x="1099" d="M985 0l-104 205q-207 -229 -459 -230q-80 0 -141.5 22.5t-96 60.5t-56.5 86.5t-22 100.5t9 103q29 137 110.5 224t239.5 192l100 65l-47 93q-43 80 -56 141t1 141q25 113 119 185.5t211 72.5q131 0 184 -75.5t31 -178.5q-37 -180 -281 -348l-68 -47l238 -471 q82 121 115 270h78q-41 -186 -158 -338l139 -274h-86zM633 874l80 52q98 72 148 133t69 147q18 84 -25 135.5t-125 51.5q-96 0 -159.5 -55.5t-81.5 -145.5q-10 -47 5 -114.5t44 -121.5zM850 266l-256 506l-105 -72q-123 -82 -193.5 -161.5t-92.5 -178.5q-29 -137 40.5 -226 t205.5 -89q113 0 217 64.5t184 156.5z" />
<glyph unicode="'" horiz-adv-x="376" d="M365 995l100 467h70l-101 -467h-69z" />
<glyph unicode="(" horiz-adv-x="454" d="M371 -377h-62q-164 424 -58.5 919.5t449.5 919.5h62q-147 -180 -267 -421.5t-176 -497.5q-51 -283 -35.5 -511.5t87.5 -408.5z" />
<glyph unicode=")" horiz-adv-x="454" d="M315 1462h62q164 -424 58.5 -919.5t-449.5 -919.5h-62q147 180 267 422t174 498q53 283 36.5 511t-86.5 408z" />
<glyph unicode="*" horiz-adv-x="606" d="M330 1264l39 61l168 -90l49 227h61l-49 -227l205 90l12 -57l-197 -86l87 -164l-62 -39l-92 180l-172 -180l-45 39l162 164z" />
<glyph unicode="+" horiz-adv-x="1228" d="M580 0l102 483h-483l14 70h483l105 483h69l-104 -483h483l-14 -70h-483l-103 -483h-69z" />
<glyph unicode="," horiz-adv-x="491" d="M203 0l45 209h86l-45 -205q-25 -117 -64 -173t-110 -93l14 69q41 25 61.5 70t36.5 123h-24z" />
<glyph unicode="-" horiz-adv-x="645" d="M240 522l14 70h387l-14 -70h-387z" />
<glyph unicode="." horiz-adv-x="491" d="M203 0l45 209h86l-45 -209h-86z" />
<glyph unicode="/" horiz-adv-x="569" d="M-25 -25l846 1512h82l-846 -1512h-82z" />
<glyph unicode="0" horiz-adv-x="983" d="M324 713q-43 -203 -50.5 -336t20.5 -205t77 -99.5t131 -27.5q80 0 141.5 28.5t119.5 101.5t107.5 206t92.5 332q14 70 21 108l20 110q12 71 12 113.5t-1 102t-17.5 95.5t-42 71t-68.5 51t-103 16q-66 0 -123 -26.5t-99 -64.5t-79 -102.5t-58.5 -115.5t-45 -130 t-32.5 -120zM238 713q80 379 217 558t344 179q223 0 279.5 -176t-29.5 -561q-84 -393 -218.5 -565.5t-345.5 -172.5q-217 0 -274 177.5t27 560.5z" />
<glyph unicode="1" horiz-adv-x="983" d="M500 0l276 1303q-66 -61 -177.5 -112.5t-205.5 -60.5l17 70q113 10 233.5 83t171.5 167h70l-307 -1450h-78z" />
<glyph unicode="2" horiz-adv-x="983" d="M889 0h-795q66 305 361 506l241 164q137 94 216 182t104 211q31 143 -27.5 230t-200.5 87q-154 0 -252 -107.5t-130 -262.5h-87q41 193 172.5 316.5t319.5 123.5q49 0 94 -11.5t92 -37t74 -70.5t40 -111.5t-9 -158.5q-16 -78 -47 -140.5t-83 -116.5t-101.5 -94 t-129.5 -96l-225 -153q-119 -82 -209 -187.5t-110 -195.5h708z" />
<glyph unicode="3" horiz-adv-x="983" d="M561 723l14 70h64q141 0 233.5 73.5t122.5 220.5q29 137 -26.5 215t-190.5 78q-145 0 -233 -92t-121 -229h-86q37 174 162 282.5t297 108.5q164 0 242.5 -95t41.5 -265q-27 -127 -109.5 -218.5t-205.5 -113.5l-2 -4q131 -12 190.5 -109.5t28.5 -236.5q-41 -193 -178 -313 t-338 -120q-180 0 -256 110t-45 292h86q-31 -141 28.5 -236.5t206.5 -95.5q143 0 257 89t153 272q31 145 -36.5 231t-235.5 86h-64z" />
<glyph unicode="4" horiz-adv-x="983" d="M758 461l182 856h-4l-692 -856h514zM659 0l84 391h-591l16 78l790 981h86l-208 -989h178l-15 -70h-178l-84 -391h-78z" />
<glyph unicode="5" horiz-adv-x="983" d="M256 678l246 747h624l-16 -77h-559l-193 -576h4q59 78 150.5 123t187.5 45q190 0 264 -129t31 -332q-23 -102 -65.5 -190t-106 -160t-154.5 -113t-198 -41q-100 0 -171 33t-101.5 86t-42 120t7.5 134l4 14h86l-6 -24q-16 -131 44 -212t187 -81q170 0 279.5 120t148.5 308 q37 176 -21.5 286.5t-209.5 110.5q-82 0 -156 -36.5t-110.5 -74.5t-67.5 -81h-86z" />
<glyph unicode="6" horiz-adv-x="983" d="M1096 1120h-86q14 61 0.5 118.5t-66.5 99.5t-141 42q-346 0 -496 -704l-6 -27h4q27 51 59.5 96.5t82 88.5t117 67.5t145.5 24.5q178 0 255.5 -121t30.5 -338q-47 -223 -178 -357.5t-334 -134.5q-84 0 -144 27t-93 77t-49.5 110.5t-14.5 141.5t12.5 155.5t30.5 166.5 q29 139 61.5 248t83 215.5t113 177t149.5 113.5t193 43q80 0 137.5 -24.5t84 -63.5t43 -84t13.5 -86t-7 -72zM283 444q-18 -68 -13.5 -139.5t24 -128.5t74 -94t136.5 -37q150 0 256 107.5t149 314.5q37 172 -18 280.5t-207 108.5q-156 0 -259 -114t-142 -298z" />
<glyph unicode="7" horiz-adv-x="983" d="M1198 1425l-16 -77q-166 -152 -319.5 -354.5t-257 -390t-171 -346.5t-88.5 -257h-94q33 150 150.5 387.5t309 506.5t392.5 454h-729l16 77h807z" />
<glyph unicode="8" horiz-adv-x="983" d="M999 1096q27 127 -29.5 205.5t-185.5 78.5t-218 -78.5t-115 -205.5q-29 -133 30.5 -208t182.5 -75q129 0 217.5 75t117.5 208zM256 391q-35 -162 30.5 -254t215.5 -92q143 0 250.5 93t142.5 253q37 176 -28.5 264t-217.5 88q-141 0 -248.5 -89t-144.5 -263zM170 391 q33 160 134.5 262.5t230.5 120.5l2 4q-111 23 -155 111t-17 207q33 162 150.5 258t283.5 96q170 0 244.5 -96.5t41.5 -257.5q-27 -119 -103.5 -205t-197.5 -113l-2 -4q127 -18 180.5 -118.5t18.5 -264.5q-41 -190 -175 -303t-323 -113q-186 0 -270 113t-43 303z" />
<glyph unicode="9" horiz-adv-x="983" d="M190 305h86q-14 -61 -0.5 -118.5t65.5 -99.5t142 -42q346 0 496 705l6 28h-4q-27 -53 -60.5 -97t-81.5 -88t-116 -68.5t-145 -24.5q-178 0 -256 120.5t-33 337.5q49 223 180 357.5t332 134.5q86 0 146.5 -26.5t93 -77t49 -110.5t13.5 -141t-12.5 -156t-29.5 -167 q-29 -139 -61.5 -247.5t-84 -216t-113 -177.5t-148.5 -113t-195 -43q-78 0 -135.5 25t-84 63.5t-43 84t-13.5 86t7 71.5zM1004 981q18 68 13 139.5t-24.5 129t-74 94t-136.5 36.5q-150 0 -256 -107.5t-151 -314.5q-35 -172 20.5 -280.5t206.5 -108.5q156 0 259.5 114 t142.5 298z" />
<glyph unicode=":" horiz-adv-x="491" d="M203 0l45 209h86l-45 -209h-86zM375 809l45 209h86l-45 -209h-86z" />
<glyph unicode=";" horiz-adv-x="491" d="M203 0l45 209h86l-45 -205q-25 -117 -64 -173t-110 -93l14 69q41 25 61.5 70t36.5 123h-24zM375 809l45 209h86l-45 -209h-86z" />
<glyph unicode="&#x3c;" horiz-adv-x="1228" d="M199 483l14 70l1143 496l-15 -62l-1073 -469l875 -469l-13 -61z" />
<glyph unicode="=" horiz-adv-x="1228" d="M242 684l14 70h1036l-14 -70h-1036zM156 283l16 69h1036l-16 -69h-1036z" />
<glyph unicode="&#x3e;" horiz-adv-x="1228" d="M1249 553l-14 -70l-1141 -495l12 61l1076 469l-877 469l14 62z" />
<glyph unicode="?" d="M455 375l22 102q18 96 69.5 171t111.5 124l121 98q60 49 110.5 119t68.5 158q27 127 -30.5 198.5t-179.5 71.5q-80 0 -144.5 -29.5t-107.5 -82t-70 -110.5t-41 -126l-6 -27h-86l8 33q14 72 49 140.5t89.5 132t137 101.5t183.5 38q78 0 137 -20.5t90 -54.5t49.5 -78 t17.5 -91t-10 -92q-16 -86 -56 -154.5t-87 -111.5l-100 -88l-100 -83q-46 -38 -83.5 -98.5t-54.5 -134.5l-22 -106h-86zM375 0l41 197h86l-41 -197h-86z" />
<glyph unicode="@" horiz-adv-x="1638" d="M592 590q-25 -113 20 -176.5t144 -63.5q80 0 166 56.5t151.5 138.5t114.5 172t63 160q8 35 10.5 61.5t-2 61t-18.5 57t-49 39t-86 16.5q-117 0 -230.5 -86t-186 -203.5t-97.5 -232.5zM1413 1141h86l-321 -598q-53 -98 -58 -121q-6 -31 13.5 -51.5t52.5 -20.5 q143 0 294.5 161t192.5 353q27 127 -5 232.5t-106.5 175t-180 107.5t-226.5 38q-190 0 -373.5 -94t-311.5 -254t-167 -346q-31 -145 3 -273t114 -215.5t197.5 -138.5t250.5 -51q174 0 346 81t304 222h86q-131 -170 -338 -271.5t-414 -101.5q-225 0 -386 98.5t-226.5 272.5 t-18.5 391q43 209 186.5 382t344 270.5t413.5 97.5q152 0 276 -45t203.5 -126t111.5 -199t1 -255q-31 -147 -135 -283.5t-235.5 -217t-243.5 -80.5q-59 0 -91 36.5t-18 106.5h-4q-139 -143 -315 -143q-121 0 -179.5 88t-29.5 215q29 141 120 277t229 228.5t280 92.5 q96 0 147 -54.5t49 -130.5h4z" />
<glyph unicode="A" horiz-adv-x="985" d="M862 524l-69 852h-5l-440 -852h514zM907 0l-43 455h-551l-235 -455h-86l766 1462h108l127 -1462h-86z" />
<glyph unicode="B" horiz-adv-x="1024" d="M125 0l311 1462h393q205 0 274 -95q45 -62 44 -157q0 -51 -12 -112q-31 -143 -121 -227.5t-219 -100.5l-2 -4q152 -10 212 -112q39 -66 39 -154q0 -48 -12 -103q-39 -184 -173 -290.5t-329 -106.5h-405zM381 801h281q150 0 252 73.5t135 223.5q12 53 11 97 q0 198 -235 198h-317zM225 70h289q184 0 289.5 76.5t142.5 252.5q13 59 13 107q0 99 -55 150q-81 75 -253 75h-284z" />
<glyph unicode="C" horiz-adv-x="1024" d="M1178 1042h-86q13 58 12 109q0 89 -38 158q-60 109 -214 108q-207 0 -335 -177t-198 -507q-33 -156 -40 -274q-2 -34 -3 -66q0 -80 15 -149q20 -96 84.5 -147.5t173.5 -51.5q80 0 151.5 36t119.5 88t87 116.5t58.5 116t27.5 90.5h86q-12 -57 -36.5 -120t-71.5 -135.5 t-107.5 -129t-150.5 -94.5t-195 -38q-328 0 -328 406q0 147 43 348q160 758 629 758q98 0 167 -33t101.5 -82t47.5 -112q13 -56 12 -103v-13q-2 -53 -12 -102z" />
<glyph unicode="D" horiz-adv-x="1062" d="M225 70h248q231 0 370.5 160.5t211.5 500.5q42 181 42 312q0 112 -31 187q-67 163 -310 163h-248zM125 0l311 1462h334q98 0 170 -18.5t130 -66.5t85 -129q25 -75 25 -192v-19q-2 -130 -39 -306q-37 -174 -94.5 -306t-121 -211t-144.5 -129t-156.5 -67.5t-165.5 -17.5 h-334z" />
<glyph unicode="E" d="M125 0l311 1462h699l-17 -78h-612l-125 -583h571l-16 -78h-571l-138 -645h631l-16 -78h-717z" />
<glyph unicode="F" horiz-adv-x="833" d="M125 0l311 1462h701l-17 -78h-614l-125 -583h571l-16 -78h-571l-154 -723h-86z" />
<glyph unicode="G" horiz-adv-x="1062" d="M915 0l64 295h-4q-70 -152 -185.5 -236t-269.5 -84q-330 0 -329 407q0 147 42 347q160 758 629 758q98 0 167 -33t101.5 -82t47.5 -112q13 -56 12 -103v-13q-2 -52 -12 -102h-86q13 58 12 109q0 89 -38 158q-60 109 -214 108q-207 0 -335 -177t-198 -507 q-33 -156 -40 -274q-2 -34 -3 -66q0 -80 15 -149q20 -96 84.5 -147.5t173.5 -51.5q98 0 181 45t138.5 123t93 167t58.5 191l20 91h-401l14 69h488l-156 -731h-70z" />
<glyph unicode="H" horiz-adv-x="1062" d="M125 0l311 1462h86l-137 -641h641l137 641h86l-311 -1462h-86l158 743h-641l-158 -743h-86z" />
<glyph unicode="I" horiz-adv-x="335" d="M125 0l311 1462h86l-311 -1462h-86z" />
<glyph unicode="J" horiz-adv-x="833" d="M225 428l-8 -45q-17 -78 -17 -139q0 -199 183 -199q109 0 192.5 66.5t118.5 222.5l240 1128h86l-240 -1128q-39 -176 -147.5 -267.5t-259.5 -91.5q-125 0 -189.5 54.5t-68.5 148.5q-1 14 -1 30q0 83 19 187l6 33h86z" />
<glyph unicode="K" horiz-adv-x="948" d="M125 0l311 1462h86l-174 -813h4l778 813h95l-590 -616l323 -846h-98l-297 774l-241 -250l-111 -524h-86z" />
<glyph unicode="L" d="M125 0l311 1462h86l-295 -1384h613l-17 -78h-698z" />
<glyph unicode="M" horiz-adv-x="1327" d="M1130 0l287 1352h-4l-706 -1352h-86l-134 1352h-4l-286 -1352h-86l311 1462h139l135 -1315h4l686 1315h142l-311 -1462h-87z" />
<glyph unicode="N" horiz-adv-x="1062" d="M422 1462h115l354 -1327h4l283 1327h86l-312 -1462h-112l-357 1327h-4l-282 -1327h-86z" />
<glyph unicode="O" horiz-adv-x="1099" d="M866 1487q113 0 188.5 -38t122.5 -127q44 -85 44 -221v-12q-2 -144 -43 -358q-39 -184 -98.5 -323.5t-123 -220.5t-139.5 -130t-139.5 -65.5t-132.5 -16.5q-109 0 -183.5 38t-122.5 127q-47 87 -48 228q0 145 42 363q43 207 111 356.5t152 235.5t175 125t195 39z M852 1417q-387 0 -533 -686q-35 -160 -41 -278q-2 -29 -2 -56q0 -86 17 -158q23 -95 89.5 -144.5t178.5 -49.5q199 0 327 168t204 518q33 156 38 276l2 50q0 90 -18 165q-23 95 -88 145t-174 50z" />
<glyph unicode="P" horiz-adv-x="948" d="M125 0l311 1462h379q96 -2 165 -29.5t101.5 -69.5t46.5 -98q12 -46 12 -88v-18q-3 -49 -14 -102q-41 -186 -174 -296t-327 -110h-275l-139 -651h-86zM365 721h282q141 0 249 83t144 253q11 55 12 101q0 87 -40 146q-61 89 -209 89h-295z" />
<glyph unicode="Q" horiz-adv-x="1099" d="M731 362l137 -174q143 168 224 543q33 156 38 276l2 50q0 90 -18 165q-23 95 -88 145t-174 50q-387 0 -533 -686q-35 -160 -41 -278q-2 -29 -2 -56q0 -86 17 -158q23 -95 89.5 -144.5t178.5 -49.5q135 0 248 84l-141 182zM969 -76l-121 156q-131 -104 -303 -105 q-109 0 -183.5 38t-122.5 127q-47 87 -48 228q0 145 42 363q43 207 111 356.5t152 235.5t175 125t195 39q113 0 188.5 -38t122.5 -127q44 -85 44 -221v-12q-2 -144 -43 -358q-88 -412 -269 -596l121 -160z" />
<glyph unicode="R" horiz-adv-x="1024" d="M125 0l311 1462h428q162 0 242 -96q53 -64 53 -168q0 -54 -14 -119q-31 -150 -129 -249t-242 -113v-4q113 -6 168 -56q56 -50 56 -134q0 -75 -19 -173l-33 -153q-11 -50 -10 -94q0 -58 18 -103h-98q-10 31 -10 73q0 54 16 126l31 149q16 75 16 132q0 72 -25 117 q-46 81 -214 81h-316l-143 -678h-86zM371 748h274q344 0 414 331q10 50 10 93q0 83 -39 138q-59 83 -192 83h-330z" />
<glyph unicode="S" horiz-adv-x="985" d="M254 451l-16 -76q-10 -44 -10 -84q0 -88 47 -153q69 -93 225 -93q150 0 263.5 95.5t143.5 236.5q11 38 12 72q0 15 -3 28q-7 45 -18 76t-43 57.5t-64.5 44t-81.5 35.5l-154 58q-141 51 -197 133q-36 53 -35 130q0 43 11 95q37 174 167 277.5t304 103.5q199 0 273 -105 q48 -67 49 -170q0 -56 -15 -122h-86q12 57 12 105q0 81 -34 135q-55 87 -205 87q-137 0 -240.5 -71.5t-136.5 -231.5q-9 -42 -9 -78q0 -61 26 -103q42 -67 136 -102l201 -75q141 -53 197 -136q35 -52 35 -132q0 -47 -13 -105q-41 -188 -185 -298t-327 -110 q-80 0 -143.5 18.5t-100 49.5t-61 69t-33.5 82q-7 39 -7 74q0 42 9 86l21 97h86z" />
<glyph unicode="T" d="M393 0l295 1384h-389l16 78h865l-17 -78h-389l-295 -1384h-86z" />
<glyph unicode="U" horiz-adv-x="1024" d="M504 1462l-230 -1075q-13 -60 -12 -110q0 -85 37 -142q59 -90 223 -90q154 0 256.5 92t134.5 250l230 1075h86l-225 -1059q-25 -119 -78.5 -204.5t-122 -133t-142 -69t-155.5 -21.5q-330 0 -331 285q0 65 18 143l225 1059h86z" />
<glyph unicode="V" horiz-adv-x="909" d="M401 0l-88 1462h86l74 -1364h4l656 1364h86l-711 -1462h-107z" />
<glyph unicode="W" horiz-adv-x="1441" d="M993 0l15 1339h-4l-562 -1339h-102l-6 1462h86l-4 -1339h4l559 1339h104l-8 -1339h4l566 1339h86l-631 -1462h-107z" />
<glyph unicode="X" horiz-adv-x="948" d="M838 0l-224 664l-505 -664h-93l572 743l-226 719h87l204 -633l480 633h86l-539 -719l252 -743h-94z" />
<glyph unicode="Y" horiz-adv-x="909" d="M412 0l127 602l-215 860h94l184 -770l520 770h86l-583 -860l-127 -602h-86z" />
<glyph unicode="Z" horiz-adv-x="907" d="M35 0l18 86l1020 1298h-700l16 78h787l-19 -86l-1020 -1298h752l-17 -78h-837z" />
<glyph unicode="[" horiz-adv-x="454" d="M88 -377l391 1839h275l-15 -61h-204l-365 -1716h205l-13 -62h-274z" />
<glyph unicode="\" horiz-adv-x="569" d="M379 1487l203 -1512h-82l-203 1512h82z" />
<glyph unicode="]" horiz-adv-x="454" d="M598 1462l-391 -1839h-275l13 62h205l364 1716h-205l15 61h274z" />
<glyph unicode="^" horiz-adv-x="1228" d="M203 498l680 927h69l287 -927h-61l-273 874l-641 -874h-61z" />
<glyph unicode="_" horiz-adv-x="1024" d="M969 -256h-1024l22 102h1024z" />
<glyph unicode="`" horiz-adv-x="303" d="M397 1507l101 -286h-68l-131 286h98z" />
<glyph unicode="a" horiz-adv-x="796" d="M852 813l-145 -684q-3 -17 -4 -30q0 -42 36 -42q31 0 52 11l-13 -62q-29 -18 -86 -18q-31 0 -55 29q-16 20 -16 52q0 16 4 35l14 68h-4q-43 -86 -130 -141.5t-194 -55.5q-133 0 -182 83q-32 54 -32 129q0 41 9 87q27 123 94.5 194t186.5 101l246 64q68 18 94.5 51 t42.5 107q11 54 12 94q0 61 -26 91q-43 50 -144 50q-233 0 -288 -260h-78q14 61 38.5 113.5t66.5 104.5t110.5 82t159.5 30q84 0 139 -22.5t76.5 -61.5t26.5 -90q1 -12 1 -25q0 -40 -12 -84zM688 403l47 222h-4q-25 -29 -51.5 -40.5t-99.5 -31.5l-166 -43 q-98 -25 -148.5 -81t-72.5 -155q-9 -41 -9 -75q0 -56 23 -94q37 -60 135 -60q133 0 222 96t124 262z" />
<glyph unicode="b" d="M109 0l311 1462h78l-123 -579h4q53 98 129 155.5t190 57.5q96 0 154.5 -42t77.5 -121q14 -59 14 -127q0 -23 -2 -46q-6 -94 -33 -221q-121 -563 -454 -564q-111 0 -167.5 60.5t-54.5 171.5h-4l-43 -207h-77zM680 1026q-145 0 -235.5 -119t-143.5 -368q-33 -141 -33 -245 q0 -69 15 -120q37 -129 176 -129q76 0 136 38t103 108.5t72 153.5t53 194q35 157 35 262q0 62 -12 106q-33 119 -166 119z" />
<glyph unicode="c" horiz-adv-x="796" d="M743 350h86q-6 -35 -22 -78t-51 -97t-79 -97t-111.5 -73t-147.5 -30q-100 0 -160.5 42t-81.5 122q-16 64 -16 139q0 19 1 37q5 96 32 226q119 555 479 555q74 0 126 -28t75.5 -66.5t34.5 -87.5q10 -44 11 -78q0 -38 -8 -72h-86q6 23 6 52.5t-7 67.5t-25.5 68.5t-55 52 t-90.5 21.5q-143 0 -233 -125t-141 -364q-34 -149 -35 -252q0 -70 16 -119q39 -121 186 -121q68 0 125.5 35t92 89t53 99t26.5 82z" />
<glyph unicode="d" d="M686 0l43 207h-4q-43 -111 -125 -171.5t-194 -60.5q-245 0 -246 304q0 110 33 260q27 129 63.5 226t90.5 174t130 117t172 40q193 0 221 -213h4l123 579h78l-311 -1462h-78zM279 539q-25 -111 -31 -194q-2 -26 -2 -51q0 -54 9 -103q13 -71 57 -108.5t122 -37.5 q137 0 226.5 125t140.5 369q30 138 30 236q0 251 -194 251q-135 0 -220 -118.5t-138 -368.5z" />
<glyph unicode="e" horiz-adv-x="833" d="M293 610h520q14 66 22 119q5 34 4 70q0 20 -1 41q-4 57 -22.5 96t-59.5 64.5t-107 25.5q-68 0 -125 -30.5t-94 -74.5t-66.5 -104.5t-44 -109t-26.5 -97.5zM885 541h-606l-17 -83q-6 -32 -13 -89q-6 -50 -6 -87q0 -42 9 -96q8 -47 28.5 -74.5t56.5 -47t89 -19.5 q63 0 117.5 24.5t89.5 59.5t61.5 80t38.5 79t19 62h77q-12 -66 -44.5 -128t-82 -119.5t-123 -92.5t-161.5 -35q-133 0 -197 72q-62 71 -62 199q0 130 40 319q53 252 173 391.5t298 139.5q123 0 184 -66.5t64 -190.5v-14q0 -120 -33 -284z" />
<glyph unicode="f" horiz-adv-x="417" d="M162 0l213 1001h-146l15 70h145l39 178q45 213 234 213q53 0 77 -6l-14 -70q-27 6 -66 7q-123 0 -153 -140l-39 -182h178l-14 -70h-178l-213 -1001h-78z" />
<glyph unicode="g" d="M279 541q-29 -150 -29 -253q0 -98 45 -157q47 -61 143 -61q262 0 367 487q28 132 27 226q0 243 -181 243q-135 0 -226 -110.5t-146 -374.5zM991 1071l-215 -1012q-45 -213 -146.5 -324.5t-289.5 -111.5q-78 0 -130 23.5t-74.5 54.5t-31.5 72q-7 33 -6 55v11q2 26 8 50h78 q-6 -28 -6 -51q0 -53 31 -91q45 -54 153 -54q135 0 214 78.5t114 248.5l43 197h-6q-25 -43 -48.5 -74.5t-62 -67.5t-94 -55.5t-123.5 -19.5q-237 0 -237 294q0 105 31 247q20 94 43.5 169.5t61.5 150.5t85 124t115.5 80t150.5 31q199 0 223 -203h5l36 178h78z" />
<glyph unicode="h" horiz-adv-x="833" d="M104 0l312 1462h78l-119 -553h4q49 80 130 133.5t183 53.5q121 0 180 -72q39 -47 40 -127q0 -41 -11 -90l-172 -807h-78l164 770q12 57 12 100q0 62 -24 97q-41 59 -148 59q-119 0 -208 -97.5t-119 -242.5l-146 -686h-78z" />
<glyph unicode="i" horiz-adv-x="303" d="M113 0l227 1071h78l-228 -1071h-77zM379 1253l45 209h78l-45 -209h-78z" />
<glyph unicode="j" horiz-adv-x="303" d="M-154 -360l15 69q35 -4 55 -4q61 0 104 31t62 121l258 1214h78l-256 -1206q-49 -229 -244 -230q-25 1 -72 5zM379 1253l45 209h78l-45 -209h-78z" />
<glyph unicode="k" horiz-adv-x="796" d="M104 0l312 1462h78l-205 -960h4l584 569h98l-416 -397l248 -674h-98l-220 604l-223 -211l-84 -393h-78z" />
<glyph unicode="l" horiz-adv-x="303" d="M113 0l311 1462h78l-312 -1462h-77z" />
<glyph unicode="m" horiz-adv-x="1327" d="M117 0l227 1071h78l-33 -160h4q41 84 120 134.5t177 50.5q189 0 189 -179v-22h4q29 72 109.5 136.5t195.5 64.5q125 0 175 -72q32 -46 32 -114q0 -39 -11 -87l-174 -823h-77l172 805q7 38 7 70q0 57 -24 94q-37 57 -123 57q-117 0 -198.5 -87t-112.5 -228l-152 -711h-77 l163 768q12 57 12 101q0 157 -147 157q-119 0 -198.5 -90t-108.5 -225l-151 -711h-78z" />
<glyph unicode="n" horiz-adv-x="833" d="M104 0l228 1071h78l-35 -162h4q49 80 130 133.5t183 53.5q121 0 180 -72q39 -47 40 -127q0 -41 -11 -90l-172 -807h-78l164 770q12 57 12 100q0 62 -24 97q-41 59 -148 59q-119 0 -208 -97.5t-119 -242.5l-146 -686h-78z" />
<glyph unicode="o" d="M909 537q-27 -125 -63.5 -220.5t-92 -175.5t-138.5 -123t-191 -43q-102 0 -163.5 43t-82.5 123q-17 67 -17 144q0 15 1 31q4 95 30.5 220.5t62.5 219.5t91 174t139 123t191 43q102 0 163.5 -43t83.5 -123q18 -67 18 -145q0 -15 -1 -30q-4 -95 -31 -218zM821 535 q35 139 35 241q0 68 -15 120q-38 130 -186.5 130t-236.5 -124t-142 -367q-30 -151 -29 -258q0 -114 50 -174q49 -58 149 -58q147 0 235.5 124t139.5 366z" />
<glyph unicode="p" d="M33 -360l303 1431h78l-39 -188h4q53 98 129 155.5t190 57.5q242 0 243 -301q0 -108 -32 -256q-121 -563 -454 -564q-111 0 -167.5 60.5t-54.5 171.5h-4l-118 -567h-78zM301 539q-33 -141 -33 -245q0 -69 15 -120q37 -129 176 -129q76 0 136 38t103 108.5t72 153.5t53 194 q27 144 28 243q0 79 -17 129q-39 115 -154 115q-145 0 -235.5 -118.5t-143.5 -368.5z" />
<glyph unicode="q" d="M610 -360l119 567h-4q-43 -111 -125 -171.5t-194 -60.5q-245 0 -246 304q0 110 33 260q27 125 62.5 220t89.5 174t130 121t174 42q109 0 159 -57.5t62 -155.5h4l39 188h78l-303 -1431h-78zM279 539q-25 -111 -31 -194q-2 -26 -2 -51q0 -54 9 -103q13 -71 57 -108.5 t122 -37.5q137 0 226.5 125t140.5 369q28 135 28 233q0 254 -192 254q-256 0 -358 -487z" />
<glyph unicode="r" horiz-adv-x="493" d="M104 0l228 1071h78l-39 -186h4q51 96 131 153.5t182 57.5h45l-16 -70h-45q-129 0 -222.5 -101.5t-121.5 -244.5l-146 -680h-78z" />
<glyph unicode="s" horiz-adv-x="720" d="M805 770h-78l6 31q9 43 9 77q0 148 -162 148q-90 0 -159 -49t-89 -150q-7 -32 -7 -59q0 -42 17 -71q29 -48 104 -81l152 -61q142 -59 142 -205q0 -37 -9 -80q-29 -131 -135.5 -213t-237.5 -82q-84 0 -140 25t-81.5 57.5t-33.5 83.5q-5 33 -4 60q0 15 1 28q4 37 15 84 l4 29h78l-7 -35q-10 -49 -10 -89q0 -173 195 -173q111 0 180.5 63.5t89.5 159.5q6 31 7 58q0 42 -16 74q-26 52 -104 87l-145 64q-94 41 -129 104q-22 40 -22 95q0 32 8 69q29 131 125 204t227 73q227 0 227 -195q0 -44 -12 -98z" />
<glyph unicode="t" horiz-adv-x="417" d="M229 1001l15 70h145l68 318h78l-68 -318h178l-14 -70h-178l-177 -825q-5 -25 -5 -44q0 -75 75 -75q55 0 98 13l-14 -70q-61 -12 -113 -12q-128 0 -127 118q0 28 7 62l178 833h-146z" />
<glyph unicode="u" horiz-adv-x="833" d="M956 1071l-227 -1071h-78l35 162h-4q-47 -80 -129 -133.5t-184 -53.5q-121 0 -181 72q-39 47 -39 127q0 41 11 90l172 807h78l-164 -770q-12 -56 -12 -100q0 -62 24 -97q41 -59 148 -59q119 0 207.5 97.5t119.5 242.5l146 686h77z" />
<glyph unicode="v" horiz-adv-x="720" d="M412 0h-93l-73 1071h86l53 -973h4l455 973h86z" />
<glyph unicode="w" horiz-adv-x="1099" d="M758 0l2 961h-4l-416 -961h-98l-2 1071h86l-15 -960h4l416 960h98l-2 -960h4l398 960h86l-459 -1071h-98z" />
<glyph unicode="x" horiz-adv-x="720" d="M27 0l405 551l-164 520h97l129 -455l327 455h86l-383 -520l170 -551h-96l-137 483l-348 -483h-86z" />
<glyph unicode="y" horiz-adv-x="720" d="M401 111l443 960h86l-594 -1231q-53 -109 -118.5 -154.5t-160.5 -45.5q-27 0 -80 4l15 69q57 -4 67 -4q78 0 122 33t93 135l58 113l-86 1081h86l65 -960h4z" />
<glyph unicode="z" horiz-adv-x="684" d="M31 0l14 70l729 931h-502l15 70h587l-14 -70l-729 -931h537l-15 -70h-622z" />
<glyph unicode="{" horiz-adv-x="454" d="M168 512l14 61q78 0 130.5 87.5t78.5 216.5l74 344q29 133 84 187t145 54h101l-15 -61h-104q-57 0 -90 -44t-51 -136l-74 -340q-20 -100 -51 -170t-65 -103t-56.5 -46t-42.5 -17l-2 -4q14 -4 27.5 -10.5t32 -29t26.5 -56t7 -96t-20 -142.5l-71 -342q-20 -90 -6 -135 t71 -45h105l-13 -62h-100q-90 0 -123 54.5t-4 187.5l74 344q12 59 16 109.5t-2 95.5t-30.5 71.5t-65.5 26.5z" />
<glyph unicode="|" horiz-adv-x="454" d="M182 -25l322 1512h78l-322 -1512h-78z" />
<glyph unicode="}" horiz-adv-x="454" d="M518 573l-14 -61q-78 0 -130 -87t-79 -216l-74 -344q-29 -133 -84 -187.5t-145 -54.5h-101l13 62h104q59 0 91 44t53 136l71 340q23 100 53.5 169.5t64.5 102.5t56.5 46.5t42.5 17.5l2 4q-16 4 -29.5 10t-30.5 28.5t-26.5 56.5t-7.5 96.5t19 142.5l73 342q20 90 6 135 t-73 45h-105l15 61h100q90 0 123 -54t4 -187l-74 -344q-12 -59 -16 -109.5t2 -95.5t29.5 -72t66.5 -27z" />
<glyph unicode="~" horiz-adv-x="1228" d="M281 408l-37 45q49 57 80.5 86.5t87 56.5t118.5 27q86 0 209 -70l68 -35q20 -10 61 -22.5t78 -12.5q35 0 68 12.5t64 42.5l46 43q14 13 43 48l39 -45q-49 -57 -80.5 -87t-87 -56.5t-118.5 -26.5q-86 0 -211 69l-67 35q-19 10 -60 22.5t-80 12.5q-35 0 -67 -12.5 t-64.5 -42t-45.5 -42.5t-44 -48z" />
<glyph unicode="&#xa1;" horiz-adv-x="454" d="M354 737h62l-119 -610l-102 -479h-86l102 479zM420 1110h86l-41 -197h-86z" />
<glyph unicode="&#xa2;" horiz-adv-x="983" d="M492 45l206 981q-131 -16 -214 -140t-130 -349q-53 -236 -21 -357t159 -135zM436 -211l39 186q-94 4 -150.5 48.5t-75 123t-13 174t31.5 220.5q113 526 447 555l33 159h49l-33 -159q68 -4 117 -33t71.5 -68t32.5 -86t9 -82.5t-7 -62.5h-86q10 23 6 65.5t-14 84.5t-48 75 t-97 37l-207 -981q63 4 116.5 41t85 89t50 95t24.5 80h86q-6 -35 -21.5 -74.5t-47 -92t-71.5 -95.5t-102.5 -74.5t-136.5 -38.5l-39 -186h-49z" />
<glyph unicode="&#xa3;" horiz-adv-x="983" d="M203 684l14 70h178q-2 6 -16 40.5l-19 47.5l-14 44q-10 32 -13 51t-7 48t-2 55.5t8 53.5q33 154 166 255t299 101q106 0 180 -35t107.5 -93t44 -135t-12.5 -161h-86q35 162 -23.5 258t-228.5 96q-123 0 -228.5 -76.5t-131.5 -201.5q-6 -29 -5 -61.5t3 -57.5t12 -64.5 t15 -55.5l21 -59l17 -50h287l-14 -70h-258q18 -96 0 -184q-27 -119 -119 -232.5t-225 -206.5l4 -4q109 63 184 64q59 0 147 -37q96 -39 148 -39q121 0 295 121l26 -57q-178 -133 -333 -134q-61 0 -160 39q-90 37 -170 37q-92 0 -201 -69l-33 69q139 109 231.5 216.5 t119.5 232.5q20 96 0 184h-207z" />
<glyph unicode="&#xa4;" horiz-adv-x="983" d="M129 328l123 102q-82 115 -45 283q35 164 166 284l-80 101l57 47l80 -101q139 104 305 105q168 0 260 -105l125 101l37 -47l-121 -101q78 -121 43 -284q-37 -168 -164 -283l78 -102l-57 -47l-80 100q-139 -104 -305 -104.5t-260 104.5l-125 -100zM565.5 346 q147.5 0 275.5 106.5t160.5 260t-50.5 260t-230.5 106.5t-275.5 -106.5t-160.5 -260t50.5 -260t230.5 -106.5z" />
<glyph unicode="&#xa5;" horiz-adv-x="983" d="M449 0l73 350h-276l16 70h277l34 168h-276l14 69h242l-201 768h94l189 -751l516 751h86l-528 -768h258l-15 -69h-293l-34 -168h293l-17 -70h-293l-73 -350h-86z" />
<glyph unicode="&#xa6;" horiz-adv-x="454" d="M182 -25l117 545h78l-117 -545h-78zM389 942l115 545h78l-115 -545h-78z" />
<glyph unicode="&#xa7;" horiz-adv-x="985" d="M459 453l237 -193q90 43 151.5 98.5t80.5 141.5q29 135 -84 223l-291 227q-207 -90 -242 -254q-8 -39 0 -72.5t37 -67.5t48.5 -51zM168 41h86l-6 -31q-23 -111 27.5 -180.5t166.5 -69.5q117 0 196 57.5t99 153.5q10 45 1 84t-38.5 76t-54 60.5t-70.5 58.5l-249 194 q-68 51 -92.5 110.5t-8.5 139.5q20 92 92 169t189 128l-30 34q-11 13 -25.5 35.5t-17.5 40t-7 47.5t6 58q29 131 140.5 206t250.5 75q82 0 140.5 -26.5t84 -68.5t36 -93.5t-2.5 -98.5l-4 -12h-86l4 12q18 86 -27.5 151.5t-158.5 65.5q-121 0 -195.5 -60.5t-95.5 -150.5 q-14 -66 17.5 -111.5t113.5 -111.5l269 -211q131 -102 96 -268q-37 -174 -271 -285q57 -57 77 -114.5t3 -131.5q-25 -113 -128 -197.5t-263 -84.5q-164 0 -231.5 90t-40.5 215z" />
<glyph unicode="&#xa8;" horiz-adv-x="303" d="M514 1266l45 209h86l-45 -209h-86zM240 1266l45 209h86l-45 -209h-86z" />
<glyph unicode="&#xa9;" horiz-adv-x="1638" d="M1423 895h-86q4 119 -67.5 183.5t-206.5 64.5q-166 0 -287 -124t-155 -286q-37 -176 34.5 -296t231.5 -120q262 0 383 261h86q-53 -150 -183.5 -240t-300.5 -90q-195 0 -291 128t-46 357q47 217 201.5 348t340.5 131q172 0 264 -79.5t82 -237.5zM219 731 q43 205 181.5 379t334 275.5t401 101.5t358.5 -101.5t216.5 -275.5t20.5 -379t-181.5 -379t-334 -275.5t-401.5 -101.5t-358.5 101.5t-216 275.5t-20.5 379zM297 731q-39 -184 18.5 -339.5t194.5 -247t321.5 -91.5t359.5 91.5t299 247t163 339.5t-18.5 340t-194.5 247 t-321.5 91t-359.5 -91t-299 -247t-163 -340z" />
<glyph unicode="&#xaa;" horiz-adv-x="565" d="M393 1251h-69q16 82 74.5 140.5t174.5 58.5q117 0 149 -46t13 -130l-86 -406q-10 -51 21 -51q16 0 32 6l-8 -39q-20 -12 -51 -12q-84 0 -68 72l7 30h-4q-80 -102 -211 -102q-82 0 -114 50t-13 128q31 145 182 189l137 39q51 14 73.5 30.5t31.5 57.5q16 70 -12.5 96.5 t-92.5 26.5q-137 -1 -166 -138zM612 1018l31 143h-4q-20 -12 -92 -35l-111 -32q-104 -29 -127 -138q-10 -53 12.5 -87.5t77.5 -34.5q80 0 138.5 53t74.5 131z" />
<glyph unicode="&#xab;" horiz-adv-x="681" d="M627 238l-176 276l16 78l295 285l-23 -103l-219 -221l127 -213zM391 238l-176 276l16 78l295 285l-22 -103l-219 -221l127 -213z" />
<glyph unicode="&#xac;" horiz-adv-x="1228" d="M1110 221l98 463h-966l14 70h1036l-112 -533h-70z" />
<glyph unicode="&#xad;" horiz-adv-x="645" d="M240 522l14 70h387l-14 -70h-387z" />
<glyph unicode="&#xae;" horiz-adv-x="1638" d="M598 285l190 897h345q297 0 243 -250q-23 -106 -100.5 -165.5t-181.5 -76.5l180 -405h-92l-181 407h-231l-86 -407h-86zM858 1112l-74 -350h228q242 0 278 172q20 94 -31 136t-153 42h-248zM297 731q-39 -184 18.5 -339.5t194.5 -247t321.5 -91.5t359.5 91.5t299 247 t163 339.5t-18.5 340t-194.5 247t-321.5 91t-359.5 -91t-299 -247t-163 -340zM219 731q43 205 181.5 379t334 275.5t401 101.5t358.5 -101.5t216.5 -275.5t20.5 -379t-181.5 -379t-334 -275.5t-401.5 -101.5t-358.5 101.5t-216 275.5t-20.5 379z" />
<glyph unicode="&#xaf;" horiz-adv-x="303" d="M213 1333l14 62h443l-15 -62h-442z" />
<glyph unicode="&#xb0;" horiz-adv-x="819" d="M363.5 1157q25.5 121 129 207t225.5 86t189.5 -86t42 -207t-130 -207t-226.5 -86t-188.5 86t-41 207zM433.5 1157q-19.5 -92 31.5 -157.5t143 -65.5t172 65.5t99.5 157.5t-32.5 157.5t-144.5 65.5t-171 -65.5t-98 -157.5z" />
<glyph unicode="&#xb1;" horiz-adv-x="1228" d="M717 643l84 393h69l-84 -393h484l-15 -70h-483l-84 -393h-70l84 393h-483l14 70h484zM96 0l15 70h1036l-14 -70h-1037z" />
<glyph unicode="&#xb2;" horiz-adv-x="641" d="M702 573h-518l6 31q35 170 213 281l160 100q92 57 141.5 108.5t63.5 116.5q16 82 -21.5 130.5t-119.5 48.5q-106 0 -166 -58.5t-78 -146.5h-70q25 119 109 192.5t215 73.5q45 0 84 -10t72.5 -35t47 -70t-0.5 -108q-20 -98 -74.5 -156.5t-163.5 -128.5l-178 -113 q-135 -86 -158 -194h449z" />
<glyph unicode="&#xb3;" horiz-adv-x="641" d="M481 997l13 62h34q86 0 145.5 46t78.5 124q14 74 -22 117t-116 43q-90 0 -145 -51.5t-72 -123.5h-69q23 106 104.5 171t204.5 65q104 0 155.5 -57.5t28.5 -159.5q-16 -76 -68.5 -131t-134.5 -68v-6q92 -12 128 -66.5t18 -140.5q-25 -117 -112 -189.5t-214 -72.5 q-137 0 -188 68.5t-29 175.5h70q-14 -72 23.5 -127t129.5 -55q84 0 157 51t93 147q18 84 -26.5 131t-151.5 47h-35z" />
<glyph unicode="&#xb4;" horiz-adv-x="303" d="M330 1221l219 286h98l-250 -286h-67z" />
<glyph unicode="&#xb6;" horiz-adv-x="1228" d="M494 -285l200 944q-182 0 -278.5 105.5t-55.5 296.5q41 193 187.5 297t355.5 104h383l-373 -1747h-77l358 1678h-264l-359 -1678h-77zM711 729l141 664q-145 0 -259 -88t-146.5 -244t43.5 -244t221 -88z" />
<glyph unicode="&#xb7;" horiz-adv-x="491" d="M285.5 676q9.5 43 46.5 73.5t80 30.5t67.5 -30.5t15 -73.5t-47 -74t-80.5 -31t-67 31t-14.5 74z" />
<glyph unicode="&#xb8;" horiz-adv-x="303" d="M150 0h61l-111 -117l2 -4q31 10 82 10q57 0 91 -37.5t20 -97.5q-10 -57 -72.5 -104t-161 -47t-163.5 37l26 45q63 -33 152 -33q129 0 149 100q10 45 -15.5 66.5t-76.5 21.5t-115 -28l-14 24z" />
<glyph unicode="&#xb9;" horiz-adv-x="641" d="M442 573l164 779q-39 -37 -110.5 -68t-135.5 -35l13 62q74 6 153.5 48t108.5 91h61l-184 -877h-70z" />
<glyph unicode="&#xba;" horiz-adv-x="641" d="M485 772q-92 0 -138 45t-47 121t17 174q35 162 106 250t206 88q92 0 138 -45t47 -120t-19 -173q-33 -164 -104 -252t-206 -88zM387 1112q-57 -279 111 -278q170 0 227 278q59 276 -111 277q-168 -1 -227 -277z" />
<glyph unicode="&#xbb;" horiz-adv-x="681" d="M158 238l20 102l219 221l-127 213l23 103l174 -277l-16 -78zM393 238l21 102l219 221l-127 213l22 103l174 -277l-16 -78z" />
<glyph unicode="&#xbc;" horiz-adv-x="1476" d="M1286 283l107 495h-4l-428 -495h325zM1227 0l47 221h-395l14 72l504 584h86l-127 -594h121l-13 -62h-121l-47 -221h-69zM182 -66l1272 1557h70l-1272 -1557h-70zM408 573l163 779q-39 -37 -110.5 -68t-134.5 -35l12 62q74 6 153.5 48t108.5 91h62l-185 -877h-69z" />
<glyph unicode="&#xbd;" horiz-adv-x="1476" d="M160 -66l1272 1557h69l-1272 -1557h-69zM408 573l163 779q-39 -37 -110.5 -68t-134.5 -35l12 62q74 6 153.5 48t108.5 91h62l-185 -877h-69zM1417 0h-518l6 31q37 170 213 280l162 101q90 57 139 108t64 117q18 82 -20 130t-120 48q-109 0 -168 -58.5t-77 -146.5h-70 q27 119 111 193t215 74q45 0 83 -10.5t71.5 -35t47 -69.5t0.5 -109q-20 -98 -75.5 -156.5t-163.5 -127.5l-176 -113q-135 -86 -160 -195h449z" />
<glyph unicode="&#xbe;" horiz-adv-x="1476" d="M1286 283l107 495h-4l-428 -495h325zM1227 0l47 221h-395l14 72l504 584h86l-127 -594h121l-13 -62h-121l-47 -221h-69zM254 -66l1272 1557h69l-1271 -1557h-70zM481 997l13 62h34q86 0 145.5 46t78.5 124q14 74 -22 117t-116 43q-90 0 -145 -51.5t-72 -123.5h-69 q23 106 104.5 171t204.5 65q104 0 155.5 -57.5t28.5 -159.5q-16 -76 -68.5 -131t-134.5 -68v-6q92 -12 128 -66.5t18 -140.5q-25 -117 -112 -189.5t-214 -72.5q-137 0 -188 68.5t-29 175.5h70q-14 -72 23.5 -127t129.5 -55q84 0 157 51t93 147q18 84 -26.5 131t-151.5 47 h-35z" />
<glyph unicode="&#xbf;" d="M653 735l-20 -102q-20 -96 -71.5 -171t-111.5 -124l-121 -98q-60 -49 -110.5 -119t-68.5 -158q-27 -127 30.5 -198.5t179.5 -71.5q80 0 144.5 29.5t107.5 82t70 110.5t41 126l6 27h86l-6 -33q-16 -72 -50 -140.5t-88.5 -132t-138 -101.5t-184.5 -38q-78 0 -136 20.5 t-90 54.5t-50.5 78t-17.5 91t9 92q18 86 58.5 154.5t86.5 111.5t100 88l101 83q46 38 83.5 98.5t52.5 134.5l22 106h86zM647 1110h86l-41 -197h-86z" />
<glyph unicode="&#xc0;" horiz-adv-x="985" d="M862 524l-69 852h-5l-440 -852h514zM907 0l-43 455h-551l-235 -455h-86l766 1462h108l127 -1462h-86zM807 1824l101 -286h-68l-131 286h98z" />
<glyph unicode="&#xc1;" horiz-adv-x="985" d="M862 524l-69 852h-5l-440 -852h514zM907 0l-43 455h-551l-235 -455h-86l766 1462h108l127 -1462h-86zM740 1538l219 286h98l-250 -286h-67z" />
<glyph unicode="&#xc2;" horiz-adv-x="985" d="M862 524l-69 852h-5l-440 -852h514zM907 0l-43 455h-551l-235 -455h-86l766 1462h108l127 -1462h-86zM586 1538l252 286h86l133 -286h-86l-102 225l-197 -225h-86z" />
<glyph unicode="&#xc3;" horiz-adv-x="985" d="M862 524l-69 852h-5l-440 -852h514zM907 0l-43 455h-551l-235 -455h-86l766 1462h108l127 -1462h-86zM1061 1779h62q-14 -61 -60.5 -118.5t-117.5 -57.5q-51 -2 -109 51l-10 11q-8 8 -11.5 10t-10.5 8t-11 8t-10 6t-11.5 6.5t-12.5 3.5t-13 1q-43 0 -67.5 -35t-32.5 -78 h-62q12 59 58.5 116.5t117.5 57.5q55 2 109 -51l11 -10.5l11 -10.5t9.5 -8t11.5 -8t11 -6t11 -6t11.5 -3t13.5 -1q45 0 68.5 35.5t33.5 78.5z" />
<glyph unicode="&#xc4;" horiz-adv-x="985" d="M862 524l-69 852h-5l-440 -852h514zM907 0l-43 455h-551l-235 -455h-86l766 1462h108l127 -1462h-86zM924 1583l45 209h86l-45 -209h-86zM650 1583l45 209h86l-45 -209h-86z" />
<glyph unicode="&#xc5;" horiz-adv-x="985" d="M862 524l-69 852h-5l-440 -852h514zM907 0l-43 455h-551l-235 -455h-86l766 1462h108l127 -1462h-86zM670 1687q16 76 81 129t140.5 53t117.5 -53t25.5 -129t-81 -129t-139 -53t-117.5 53t-27 129zM731.5 1687q-10.5 -51 17.5 -86t78 -35t93 35t53 86t-17.5 86t-77.5 35 t-93 -35t-53.5 -86z" />
<glyph unicode="&#xc6;" horiz-adv-x="1441" d="M414 524h385l184 860h-14zM688 0l96 455h-413l-287 -455h-92l940 1462h766l-17 -78h-612l-125 -583h572l-17 -78h-571l-137 -645h632l-16 -78h-719z" />
<glyph unicode="&#xc7;" horiz-adv-x="1024" d="M399 -164l123 139h-4q-446 0 -285 754q160 758 629 758q98 0 167 -33t101.5 -82t47 -112.5t12.5 -115.5t-12 -102h-86q35 158 -25.5 266.5t-214.5 108.5q-207 0 -335 -177t-198 -507q-33 -156 -41 -274.5t12.5 -215t85 -147.5t173.5 -51q80 0 151.5 36t119.5 88t87 116.5 t58.5 116t27.5 90.5h86q-12 -53 -33.5 -111.5t-63.5 -127.5t-95 -124t-131 -97t-168 -52l-92 -97l2 -4q31 10 82 10q57 0 91 -37.5t19 -97.5q-10 -57 -72.5 -104t-161 -47t-163.5 37l26 45q63 -33 152 -33q129 0 150 100q10 45 -15.5 66.5t-77.5 21.5q-51 0 -114 -28z" />
<glyph unicode="&#xc8;" d="M125 0l311 1462h699l-17 -78h-612l-125 -583h571l-16 -78h-571l-138 -645h631l-16 -78h-717zM784 1824l101 -286h-68l-131 286h98z" />
<glyph unicode="&#xc9;" d="M125 0l311 1462h699l-17 -78h-612l-125 -583h571l-16 -78h-571l-138 -645h631l-16 -78h-717zM717 1538l219 286h98l-250 -286h-67z" />
<glyph unicode="&#xca;" d="M125 0l311 1462h699l-17 -78h-612l-125 -583h571l-16 -78h-571l-138 -645h631l-16 -78h-717zM563 1538l252 286h86l133 -286h-86l-102 225l-197 -225h-86z" />
<glyph unicode="&#xcb;" d="M125 0l311 1462h699l-17 -78h-612l-125 -583h571l-16 -78h-571l-138 -645h631l-16 -78h-717zM901 1583l45 209h86l-45 -209h-86zM627 1583l45 209h86l-45 -209h-86z" />
<glyph unicode="&#xcc;" horiz-adv-x="335" d="M125 0l311 1462h86l-311 -1462h-86zM481 1824l101 -286h-68l-131 286h98z" />
<glyph unicode="&#xcd;" horiz-adv-x="335" d="M125 0l311 1462h86l-311 -1462h-86zM414 1538l219 286h98l-250 -286h-67z" />
<glyph unicode="&#xce;" horiz-adv-x="335" d="M125 0l311 1462h86l-311 -1462h-86zM260 1538l252 286h86l133 -286h-86l-102 225l-197 -225h-86z" />
<glyph unicode="&#xcf;" horiz-adv-x="335" d="M125 0l311 1462h86l-311 -1462h-86zM598 1583l45 209h86l-45 -209h-86zM324 1583l45 209h86l-45 -209h-86z" />
<glyph unicode="&#xd0;" horiz-adv-x="1062" d="M125 0l154 727h-123l16 74h123l141 661h334q98 0 170 -18.5t130 -66.5t85 -129t25 -211t-39 -306q-37 -174 -94.5 -306t-121 -211t-144.5 -129t-156.5 -67.5t-165.5 -17.5h-334zM733 727h-368l-140 -657h248q231 0 370.5 160.5t211.5 500.5q78 336 11 499t-310 163h-248 l-127 -592h369z" />
<glyph unicode="&#xd1;" horiz-adv-x="1062" d="M422 1462h115l354 -1327h4l283 1327h86l-312 -1462h-112l-357 1327h-4l-282 -1327h-86zM1100 1779h62q-14 -61 -60.5 -118.5t-117.5 -57.5q-51 -2 -109 51l-10 11q-8 8 -11.5 10t-10.5 8t-11 8t-10 6t-11.5 6.5t-12.5 3.5t-13 1q-43 0 -67.5 -35t-32.5 -78h-62 q12 59 58.5 116.5t117.5 57.5q55 2 109 -51l11 -10.5l11 -10.5t9.5 -8t11.5 -8t11 -6t11 -6t11.5 -3t13.5 -1q45 0 68.5 35.5t33.5 78.5z" />
<glyph unicode="&#xd2;" horiz-adv-x="1099" d="M866 1487q113 0 188.5 -38t122.5 -127q44 -85 44 -221v-12q-2 -144 -43 -358q-39 -184 -98.5 -323.5t-123 -220.5t-139.5 -130t-139.5 -65.5t-132.5 -16.5q-109 0 -183.5 38t-122.5 127q-47 87 -48 228q0 145 42 363q43 207 111 356.5t152 235.5t175 125t195 39z M852 1417q-387 0 -533 -686q-35 -160 -41 -278q-2 -29 -2 -56q0 -86 17 -158q23 -95 89.5 -144.5t178.5 -49.5q199 0 327 168t204 518q33 156 38 276l2 50q0 90 -18 165q-23 95 -88 145t-174 50zM864 1824l101 -286h-68l-131 286h98z" />
<glyph unicode="&#xd3;" horiz-adv-x="1099" d="M866 1487q113 0 188.5 -38t122.5 -127q44 -85 44 -221v-12q-2 -144 -43 -358q-39 -184 -98.5 -323.5t-123 -220.5t-139.5 -130t-139.5 -65.5t-132.5 -16.5q-109 0 -183.5 38t-122.5 127q-47 87 -48 228q0 145 42 363q43 207 111 356.5t152 235.5t175 125t195 39z M852 1417q-387 0 -533 -686q-35 -160 -41 -278q-2 -29 -2 -56q0 -86 17 -158q23 -95 89.5 -144.5t178.5 -49.5q199 0 327 168t204 518q33 156 38 276l2 50q0 90 -18 165q-23 95 -88 145t-174 50zM797 1538l219 286h98l-250 -286h-67z" />
<glyph unicode="&#xd4;" horiz-adv-x="1099" d="M866 1487q113 0 188.5 -38t122.5 -127q44 -85 44 -221v-12q-2 -144 -43 -358q-39 -184 -98.5 -323.5t-123 -220.5t-139.5 -130t-139.5 -65.5t-132.5 -16.5q-109 0 -183.5 38t-122.5 127q-47 87 -48 228q0 145 42 363q43 207 111 356.5t152 235.5t175 125t195 39z M852 1417q-387 0 -533 -686q-35 -160 -41 -278q-2 -29 -2 -56q0 -86 17 -158q23 -95 89.5 -144.5t178.5 -49.5q199 0 327 168t204 518q33 156 38 276l2 50q0 90 -18 165q-23 95 -88 145t-174 50zM643 1538l252 286h86l133 -286h-86l-102 225l-197 -225h-86z" />
<glyph unicode="&#xd5;" horiz-adv-x="1099" d="M866 1487q113 0 188.5 -38t122.5 -127q44 -85 44 -221v-12q-2 -144 -43 -358q-39 -184 -98.5 -323.5t-123 -220.5t-139.5 -130t-139.5 -65.5t-132.5 -16.5q-109 0 -183.5 38t-122.5 127q-47 87 -48 228q0 145 42 363q43 207 111 356.5t152 235.5t175 125t195 39z M852 1417q-387 0 -533 -686q-35 -160 -41 -278q-2 -29 -2 -56q0 -86 17 -158q23 -95 89.5 -144.5t178.5 -49.5q199 0 327 168t204 518q33 156 38 276l2 50q0 90 -18 165q-23 95 -88 145t-174 50zM1118 1779h62q-14 -61 -60.5 -118.5t-117.5 -57.5q-51 -2 -109 51l-10 11 q-8 8 -11.5 10t-10.5 8t-11 8t-10 6t-11.5 6.5t-12.5 3.5t-13 1q-43 0 -67.5 -35t-32.5 -78h-62q12 59 58.5 116.5t117.5 57.5q55 2 109 -51l11 -10.5l11 -10.5t9.5 -8t11.5 -8t11 -6t11 -6t11.5 -3t13.5 -1q45 0 68.5 35.5t33.5 78.5z" />
<glyph unicode="&#xd6;" horiz-adv-x="1099" d="M866 1487q113 0 188.5 -38t122.5 -127q44 -85 44 -221v-12q-2 -144 -43 -358q-39 -184 -98.5 -323.5t-123 -220.5t-139.5 -130t-139.5 -65.5t-132.5 -16.5q-109 0 -183.5 38t-122.5 127q-47 87 -48 228q0 145 42 363q43 207 111 356.5t152 235.5t175 125t195 39z M852 1417q-387 0 -533 -686q-35 -160 -41 -278q-2 -29 -2 -56q0 -86 17 -158q23 -95 89.5 -144.5t178.5 -49.5q199 0 327 168t204 518q33 156 38 276l2 50q0 90 -18 165q-23 95 -88 145t-174 50zM981 1583l45 209h86l-45 -209h-86zM707 1583l45 209h86l-45 -209h-86z" />
<glyph unicode="&#xd7;" horiz-adv-x="1228" d="M715 475l-490 -403l-32 45l489 401l-317 404l51 43l317 -404l490 404l34 -43l-489 -404l317 -401l-53 -45z" />
<glyph unicode="&#xd8;" horiz-adv-x="1099" d="M322 170l725 1178q-70 70 -195 69q-387 0 -533 -686q-85 -403 3 -561zM1090 1288l-728 -1173q68 -70 199 -70q199 0 327 168t204 518q84 397 -2 557zM162 -84l110 176q-137 174 -39 639q43 207 111 356.5t152 235.5t175 125t195 39q147 0 228 -64l86 140l63 -25 l-100 -162q135 -172 35 -645q-39 -184 -98.5 -323.5t-123 -220.5t-139.5 -130t-139.5 -65.5t-132.5 -16.5q-143 0 -228 68l-92 -152z" />
<glyph unicode="&#xd9;" horiz-adv-x="1024" d="M504 1462l-230 -1075q-13 -60 -12 -110q0 -85 37 -142q59 -90 223 -90q154 0 256.5 92t134.5 250l230 1075h86l-225 -1059q-25 -119 -78.5 -204.5t-122 -133t-142 -69t-155.5 -21.5q-330 0 -331 285q0 65 18 143l225 1059h86zM825 1824l101 -286h-68l-131 286h98z" />
<glyph unicode="&#xda;" horiz-adv-x="1024" d="M504 1462l-230 -1075q-13 -60 -12 -110q0 -85 37 -142q59 -90 223 -90q154 0 256.5 92t134.5 250l230 1075h86l-225 -1059q-25 -119 -78.5 -204.5t-122 -133t-142 -69t-155.5 -21.5q-330 0 -331 285q0 65 18 143l225 1059h86zM758 1538l219 286h98l-250 -286h-67z" />
<glyph unicode="&#xdb;" horiz-adv-x="1024" d="M504 1462l-230 -1075q-13 -60 -12 -110q0 -85 37 -142q59 -90 223 -90q154 0 256.5 92t134.5 250l230 1075h86l-225 -1059q-25 -119 -78.5 -204.5t-122 -133t-142 -69t-155.5 -21.5q-330 0 -331 285q0 65 18 143l225 1059h86zM604 1538l252 286h86l133 -286h-86l-102 225 l-197 -225h-86z" />
<glyph unicode="&#xdc;" horiz-adv-x="1024" d="M504 1462l-230 -1075q-13 -60 -12 -110q0 -85 37 -142q59 -90 223 -90q154 0 256.5 92t134.5 250l230 1075h86l-225 -1059q-25 -119 -78.5 -204.5t-122 -133t-142 -69t-155.5 -21.5q-330 0 -331 285q0 65 18 143l225 1059h86zM942 1583l45 209h86l-45 -209h-86zM668 1583 l45 209h86l-45 -209h-86z" />
<glyph unicode="&#xdd;" horiz-adv-x="909" d="M412 0l127 602l-215 860h94l184 -770l520 770h86l-583 -860l-127 -602h-86zM701 1538l219 286h98l-250 -286h-67z" />
<glyph unicode="&#xde;" horiz-adv-x="948" d="M125 0l311 1462h86l-61 -286h293q98 -2 165.5 -30t100.5 -70t47 -98t12 -105.5t-14 -102.5q-41 -186 -174 -295.5t-328 -109.5h-274l-78 -365h-86zM303 434h283q141 0 248.5 83t144.5 253q33 158 -28.5 247t-209.5 89h-295z" />
<glyph unicode="&#xdf;" d="M104 0l236 1106q35 170 142.5 263t265.5 93q143 0 205.5 -89t31.5 -236q-23 -109 -90.5 -187t-177.5 -106l-2 -4q125 -18 179 -116.5t17 -274.5q-98 -455 -526 -461h-45l14 69h45q174 0 277.5 93.5t146.5 295.5q39 180 -22.5 266.5t-227.5 86.5h-51l15 69h53 q111 0 194.5 63.5t114.5 209.5q25 111 -19 181.5t-155 70.5q-246 0 -307 -289l-236 -1104h-78z" />
<glyph unicode="&#xe0;" horiz-adv-x="796" d="M852 813l-145 -684q-3 -17 -4 -30q0 -42 36 -42q31 0 52 11l-13 -62q-29 -18 -86 -18q-31 0 -55 29q-16 20 -16 52q0 16 4 35l14 68h-4q-43 -86 -130 -141.5t-194 -55.5q-133 0 -182 83q-32 54 -32 129q0 41 9 87q27 123 94.5 194t186.5 101l246 64q68 18 94.5 51 t42.5 107q11 54 12 94q0 61 -26 91q-43 50 -144 50q-233 0 -288 -260h-78q14 61 38.5 113.5t66.5 104.5t110.5 82t159.5 30q84 0 139 -22.5t76.5 -61.5t26.5 -90q1 -12 1 -25q0 -40 -12 -84zM688 403l47 222h-4q-25 -29 -51.5 -40.5t-99.5 -31.5l-166 -43 q-98 -25 -148.5 -81t-72.5 -155q-9 -41 -9 -75q0 -56 23 -94q37 -60 135 -60q133 0 222 96t124 262zM645 1507l101 -286h-68l-131 286h98z" />
<glyph unicode="&#xe1;" horiz-adv-x="796" d="M852 813l-145 -684q-3 -17 -4 -30q0 -42 36 -42q31 0 52 11l-13 -62q-29 -18 -86 -18q-31 0 -55 29q-16 20 -16 52q0 16 4 35l14 68h-4q-43 -86 -130 -141.5t-194 -55.5q-133 0 -182 83q-32 54 -32 129q0 41 9 87q27 123 94.5 194t186.5 101l246 64q68 18 94.5 51 t42.5 107q11 54 12 94q0 61 -26 91q-43 50 -144 50q-233 0 -288 -260h-78q14 61 38.5 113.5t66.5 104.5t110.5 82t159.5 30q84 0 139 -22.5t76.5 -61.5t26.5 -90q1 -12 1 -25q0 -40 -12 -84zM688 403l47 222h-4q-25 -29 -51.5 -40.5t-99.5 -31.5l-166 -43 q-98 -25 -148.5 -81t-72.5 -155q-9 -41 -9 -75q0 -56 23 -94q37 -60 135 -60q133 0 222 96t124 262zM578 1221l219 286h98l-250 -286h-67z" />
<glyph unicode="&#xe2;" horiz-adv-x="796" d="M852 813l-145 -684q-3 -17 -4 -30q0 -42 36 -42q31 0 52 11l-13 -62q-29 -18 -86 -18q-31 0 -55 29q-16 20 -16 52q0 16 4 35l14 68h-4q-43 -86 -130 -141.5t-194 -55.5q-133 0 -182 83q-32 54 -32 129q0 41 9 87q27 123 94.5 194t186.5 101l246 64q68 18 94.5 51 t42.5 107q11 54 12 94q0 61 -26 91q-43 50 -144 50q-233 0 -288 -260h-78q14 61 38.5 113.5t66.5 104.5t110.5 82t159.5 30q84 0 139 -22.5t76.5 -61.5t26.5 -90q1 -12 1 -25q0 -40 -12 -84zM688 403l47 222h-4q-25 -29 -51.5 -40.5t-99.5 -31.5l-166 -43 q-98 -25 -148.5 -81t-72.5 -155q-9 -41 -9 -75q0 -56 23 -94q37 -60 135 -60q133 0 222 96t124 262zM424 1221l252 286h86l133 -286h-86l-102 225l-197 -225h-86z" />
<glyph unicode="&#xe3;" horiz-adv-x="796" d="M852 813l-145 -684q-3 -17 -4 -30q0 -42 36 -42q31 0 52 11l-13 -62q-29 -18 -86 -18q-31 0 -55 29q-16 20 -16 52q0 16 4 35l14 68h-4q-43 -86 -130 -141.5t-194 -55.5q-133 0 -182 83q-32 54 -32 129q0 41 9 87q27 123 94.5 194t186.5 101l246 64q68 18 94.5 51 t42.5 107q11 54 12 94q0 61 -26 91q-43 50 -144 50q-233 0 -288 -260h-78q14 61 38.5 113.5t66.5 104.5t110.5 82t159.5 30q84 0 139 -22.5t76.5 -61.5t26.5 -90q1 -12 1 -25q0 -40 -12 -84zM688 403l47 222h-4q-25 -29 -51.5 -40.5t-99.5 -31.5l-166 -43 q-98 -25 -148.5 -81t-72.5 -155q-9 -41 -9 -75q0 -56 23 -94q37 -60 135 -60q133 0 222 96t124 262zM899 1462h62q-14 -61 -60.5 -118.5t-117.5 -57.5q-51 -2 -109 51l-10 11q-8 8 -11.5 10t-10.5 8t-11 8t-10 6t-11.5 6.5t-12.5 3.5t-13 1q-43 0 -67.5 -35t-32.5 -78h-62 q12 59 58.5 116.5t117.5 57.5q55 2 109 -51l11 -10.5l11 -10.5t9.5 -8t11.5 -8t11 -6t11 -6t11.5 -3t13.5 -1q45 0 68.5 35.5t33.5 78.5z" />
<glyph unicode="&#xe4;" horiz-adv-x="796" d="M852 813l-145 -684q-3 -17 -4 -30q0 -42 36 -42q31 0 52 11l-13 -62q-29 -18 -86 -18q-31 0 -55 29q-16 20 -16 52q0 16 4 35l14 68h-4q-43 -86 -130 -141.5t-194 -55.5q-133 0 -182 83q-32 54 -32 129q0 41 9 87q27 123 94.5 194t186.5 101l246 64q68 18 94.5 51 t42.5 107q11 54 12 94q0 61 -26 91q-43 50 -144 50q-233 0 -288 -260h-78q14 61 38.5 113.5t66.5 104.5t110.5 82t159.5 30q84 0 139 -22.5t76.5 -61.5t26.5 -90q1 -12 1 -25q0 -40 -12 -84zM688 403l47 222h-4q-25 -29 -51.5 -40.5t-99.5 -31.5l-166 -43 q-98 -25 -148.5 -81t-72.5 -155q-9 -41 -9 -75q0 -56 23 -94q37 -60 135 -60q133 0 222 96t124 262zM762 1266l45 209h86l-45 -209h-86zM488 1266l45 209h86l-45 -209h-86z" />
<glyph unicode="&#xe5;" horiz-adv-x="796" d="M852 813l-145 -684q-3 -17 -4 -30q0 -42 36 -42q31 0 52 11l-13 -62q-29 -18 -86 -18q-31 0 -55 29q-16 20 -16 52q0 16 4 35l14 68h-4q-43 -86 -130 -141.5t-194 -55.5q-133 0 -182 83q-32 54 -32 129q0 41 9 87q27 123 94.5 194t186.5 101l246 64q68 18 94.5 51 t42.5 107q11 54 12 94q0 61 -26 91q-43 50 -144 50q-233 0 -288 -260h-78q14 61 38.5 113.5t66.5 104.5t110.5 82t159.5 30q84 0 139 -22.5t76.5 -61.5t26.5 -90q1 -12 1 -25q0 -40 -12 -84zM688 403l47 222h-4q-25 -29 -51.5 -40.5t-99.5 -31.5l-166 -43 q-98 -25 -148.5 -81t-72.5 -155q-9 -41 -9 -75q0 -56 23 -94q37 -60 135 -60q133 0 222 96t124 262zM508 1370q16 76 81 129t140.5 53t117.5 -53t25.5 -129t-81 -129t-139 -53t-117.5 53t-27 129zM569.5 1370q-10.5 -51 17.5 -86t78 -35t93 35t53 86t-17.5 86t-77.5 35 t-93 -35t-53.5 -86z" />
<glyph unicode="&#xe6;" horiz-adv-x="1253" d="M324 766h-78q14 59 37.5 112.5t65.5 104.5t110.5 82t156.5 31q61 0 104.5 -17.5t66 -46t31.5 -57.5t11 -62h5q39 68 106.5 125.5t163.5 57.5q123 0 184.5 -66.5t63.5 -190.5t-33 -298h-557l-12 -60q-92 -436 139 -436q68 0 125 35t92 89t53.5 99t26.5 82h78 q-12 -66 -44 -129t-80 -119.5t-119 -91.5t-151 -35q-111 0 -165 76t-52 174h-4q-45 -104 -130 -178t-208 -72q-133 0 -182 83t-23 216q51 231 275 291l201 49q78 18 105.5 44t43.5 106l12 53q25 119 -16 164t-129 45q-211 0 -274 -260zM193 268q-23 -104 14 -163.5 t135 -59.5q111 0 192.5 89t114.5 239l45 219h-4q-39 -25 -133 -47l-143 -35q-180 -45 -221 -242zM776 610h471q25 123 24 215.5t-44 146.5t-125 54q-121 0 -203 -111.5t-123 -304.5z" />
<glyph unicode="&#xe7;" horiz-adv-x="796" d="M266 -164l123 139q-119 8 -175 86t-54 200t33 280q27 125 62.5 219t89.5 173t133 121t179 42q78 0 133.5 -27t81 -65.5t37 -88t10.5 -86t-8 -65.5h-86q6 23 6 52.5t-7 67.5t-25.5 68.5t-55 52t-90.5 21.5q-143 0 -233 -125t-141 -364q-55 -231 -16.5 -361.5t183.5 -130.5 q55 0 104.5 25.5t81.5 62.5t57.5 82t37.5 78t16 57h86q-6 -33 -21 -73.5t-47 -93t-73 -94.5t-103.5 -74.5t-133.5 -39.5l-89 -92l3 -4q31 10 81 10q57 0 91 -37.5t20 -97.5q-10 -57 -72.5 -104t-161 -47t-163.5 37l26 45q63 -33 152 -33q129 0 149 100q10 45 -15.5 66.5 t-76.5 21.5t-114 -28z" />
<glyph unicode="&#xe8;" horiz-adv-x="833" d="M293 610h520q14 66 22 119q5 34 4 70q0 20 -1 41q-4 57 -22.5 96t-59.5 64.5t-107 25.5q-68 0 -125 -30.5t-94 -74.5t-66.5 -104.5t-44 -109t-26.5 -97.5zM885 541h-606l-17 -83q-6 -32 -13 -89q-6 -50 -6 -87q0 -42 9 -96q8 -47 28.5 -74.5t56.5 -47t89 -19.5 q63 0 117.5 24.5t89.5 59.5t61.5 80t38.5 79t19 62h77q-12 -66 -44.5 -128t-82 -119.5t-123 -92.5t-161.5 -35q-133 0 -197 72q-62 71 -62 199q0 130 40 319q53 252 173 391.5t298 139.5q123 0 184 -66.5t64 -190.5v-14q0 -120 -33 -284zM678 1507l101 -286h-68l-131 286h98 z" />
<glyph unicode="&#xe9;" horiz-adv-x="833" d="M293 610h520q14 66 22 119q5 34 4 70q0 20 -1 41q-4 57 -22.5 96t-59.5 64.5t-107 25.5q-68 0 -125 -30.5t-94 -74.5t-66.5 -104.5t-44 -109t-26.5 -97.5zM885 541h-606l-17 -83q-6 -32 -13 -89q-6 -50 -6 -87q0 -42 9 -96q8 -47 28.5 -74.5t56.5 -47t89 -19.5 q63 0 117.5 24.5t89.5 59.5t61.5 80t38.5 79t19 62h77q-12 -66 -44.5 -128t-82 -119.5t-123 -92.5t-161.5 -35q-133 0 -197 72q-62 71 -62 199q0 130 40 319q53 252 173 391.5t298 139.5q123 0 184 -66.5t64 -190.5v-14q0 -120 -33 -284zM611 1221l219 286h98l-250 -286h-67 z" />
<glyph unicode="&#xea;" horiz-adv-x="833" d="M293 610h520q14 66 22 119q5 34 4 70q0 20 -1 41q-4 57 -22.5 96t-59.5 64.5t-107 25.5q-68 0 -125 -30.5t-94 -74.5t-66.5 -104.5t-44 -109t-26.5 -97.5zM885 541h-606l-17 -83q-6 -32 -13 -89q-6 -50 -6 -87q0 -42 9 -96q8 -47 28.5 -74.5t56.5 -47t89 -19.5 q63 0 117.5 24.5t89.5 59.5t61.5 80t38.5 79t19 62h77q-12 -66 -44.5 -128t-82 -119.5t-123 -92.5t-161.5 -35q-133 0 -197 72q-62 71 -62 199q0 130 40 319q53 252 173 391.5t298 139.5q123 0 184 -66.5t64 -190.5v-14q0 -120 -33 -284zM457 1221l252 286h86l133 -286h-86 l-102 225l-197 -225h-86z" />
<glyph unicode="&#xeb;" horiz-adv-x="833" d="M293 610h520q14 66 22 119q5 34 4 70q0 20 -1 41q-4 57 -22.5 96t-59.5 64.5t-107 25.5q-68 0 -125 -30.5t-94 -74.5t-66.5 -104.5t-44 -109t-26.5 -97.5zM885 541h-606l-17 -83q-6 -32 -13 -89q-6 -50 -6 -87q0 -42 9 -96q8 -47 28.5 -74.5t56.5 -47t89 -19.5 q63 0 117.5 24.5t89.5 59.5t61.5 80t38.5 79t19 62h77q-12 -66 -44.5 -128t-82 -119.5t-123 -92.5t-161.5 -35q-133 0 -197 72q-62 71 -62 199q0 130 40 319q53 252 173 391.5t298 139.5q123 0 184 -66.5t64 -190.5v-14q0 -120 -33 -284zM795 1266l45 209h86l-45 -209h-86z M521 1266l45 209h86l-45 -209h-86z" />
<glyph unicode="&#xec;" horiz-adv-x="303" d="M113 0l227 1071h78l-228 -1071h-77zM397 1507l101 -286h-68l-131 286h98z" />
<glyph unicode="&#xed;" horiz-adv-x="303" d="M113 0l227 1071h78l-228 -1071h-77zM330 1221l219 286h98l-250 -286h-67z" />
<glyph unicode="&#xee;" horiz-adv-x="303" d="M113 0l227 1071h78l-228 -1071h-77zM176 1221l252 286h86l133 -286h-86l-102 225l-197 -225h-86z" />
<glyph unicode="&#xef;" horiz-adv-x="303" d="M113 0l227 1071h78l-228 -1071h-77zM514 1266l45 209h86l-45 -209h-86zM240 1266l45 209h86l-45 -209h-86z" />
<glyph unicode="&#xf0;" d="M279 537q-55 -231 -17.5 -361.5t185 -130.5t235.5 124t141 368q31 156 30 264t-50 166.5t-150 58.5q-145 0 -234 -123.5t-140 -365.5zM506 1315l182 96q-23 31 -62.5 63.5t-70.5 49.5l84 45q68 -37 133 -115l184 98l43 -53l-188 -98q217 -305 96 -866 q-27 -127 -62.5 -222.5t-91 -174.5t-136 -121t-185.5 -42q-104 0 -168.5 42t-86 121t-17.5 174.5t30 222.5q29 127 65 222t91 175t137 122t189 42q115 0 182 -68l4 4q-2 78 -41 174.5t-86 151.5l-182 -96z" />
<glyph unicode="&#xf1;" horiz-adv-x="833" d="M104 0l228 1071h78l-35 -162h4q49 80 130 133.5t183 53.5q121 0 180 -72q39 -47 40 -127q0 -41 -11 -90l-172 -807h-78l164 770q12 57 12 100q0 62 -24 97q-41 59 -148 59q-119 0 -208 -97.5t-119 -242.5l-146 -686h-78zM917 1462h62q-14 -61 -60.5 -118.5t-117.5 -57.5 q-51 -2 -109 51l-10 11q-8 8 -11.5 10t-10.5 8t-11 8t-10 6t-11.5 6.5t-12.5 3.5t-13 1q-43 0 -67.5 -35t-32.5 -78h-62q12 59 58.5 116.5t117.5 57.5q55 2 109 -51l11 -10.5l11 -10.5t9.5 -8t11.5 -8t11 -6t11 -6t11.5 -3t13.5 -1q45 0 68.5 35.5t33.5 78.5z" />
<glyph unicode="&#xf2;" d="M909 537q-27 -125 -63.5 -220.5t-92 -175.5t-138.5 -123t-191 -43q-102 0 -163.5 43t-82.5 123q-17 67 -17 144q0 15 1 31q4 95 30.5 220.5t62.5 219.5t91 174t139 123t191 43q102 0 163.5 -43t83.5 -123q18 -67 18 -145q0 -15 -1 -30q-4 -95 -31 -218zM821 535 q35 139 35 241q0 68 -15 120q-38 130 -186.5 130t-236.5 -124t-142 -367q-30 -151 -29 -258q0 -114 50 -174q49 -58 149 -58q147 0 235.5 124t139.5 366zM682 1507l101 -286h-68l-131 286h98z" />
<glyph unicode="&#xf3;" d="M909 537q-27 -125 -63.5 -220.5t-92 -175.5t-138.5 -123t-191 -43q-102 0 -163.5 43t-82.5 123q-17 67 -17 144q0 15 1 31q4 95 30.5 220.5t62.5 219.5t91 174t139 123t191 43q102 0 163.5 -43t83.5 -123q18 -67 18 -145q0 -15 -1 -30q-4 -95 -31 -218zM821 535 q35 139 35 241q0 68 -15 120q-38 130 -186.5 130t-236.5 -124t-142 -367q-30 -151 -29 -258q0 -114 50 -174q49 -58 149 -58q147 0 235.5 124t139.5 366zM615 1221l219 286h98l-250 -286h-67z" />
<glyph unicode="&#xf4;" d="M909 537q-27 -125 -63.5 -220.5t-92 -175.5t-138.5 -123t-191 -43q-102 0 -163.5 43t-82.5 123q-17 67 -17 144q0 15 1 31q4 95 30.5 220.5t62.5 219.5t91 174t139 123t191 43q102 0 163.5 -43t83.5 -123q18 -67 18 -145q0 -15 -1 -30q-4 -95 -31 -218zM821 535 q35 139 35 241q0 68 -15 120q-38 130 -186.5 130t-236.5 -124t-142 -367q-30 -151 -29 -258q0 -114 50 -174q49 -58 149 -58q147 0 235.5 124t139.5 366zM461 1221l252 286h86l133 -286h-86l-102 225l-197 -225h-86z" />
<glyph unicode="&#xf5;" d="M909 537q-27 -125 -63.5 -220.5t-92 -175.5t-138.5 -123t-191 -43q-102 0 -163.5 43t-82.5 123q-17 67 -17 144q0 15 1 31q4 95 30.5 220.5t62.5 219.5t91 174t139 123t191 43q102 0 163.5 -43t83.5 -123q18 -67 18 -145q0 -15 -1 -30q-4 -95 -31 -218zM821 535 q35 139 35 241q0 68 -15 120q-38 130 -186.5 130t-236.5 -124t-142 -367q-30 -151 -29 -258q0 -114 50 -174q49 -58 149 -58q147 0 235.5 124t139.5 366zM936 1462h62q-14 -61 -60.5 -118.5t-117.5 -57.5q-51 -2 -109 51l-10 11q-8 8 -11.5 10t-10.5 8t-11 8t-10 6 t-11.5 6.5t-12.5 3.5t-13 1q-43 0 -67.5 -35t-32.5 -78h-62q12 59 58.5 116.5t117.5 57.5q55 2 109 -51l11 -10.5l11 -10.5t9.5 -8t11.5 -8t11 -6t11 -6t11.5 -3t13.5 -1q45 0 68.5 35.5t33.5 78.5z" />
<glyph unicode="&#xf6;" d="M909 537q-27 -125 -63.5 -220.5t-92 -175.5t-138.5 -123t-191 -43q-102 0 -163.5 43t-82.5 123q-17 67 -17 144q0 15 1 31q4 95 30.5 220.5t62.5 219.5t91 174t139 123t191 43q102 0 163.5 -43t83.5 -123q18 -67 18 -145q0 -15 -1 -30q-4 -95 -31 -218zM821 535 q35 139 35 241q0 68 -15 120q-38 130 -186.5 130t-236.5 -124t-142 -367q-30 -151 -29 -258q0 -114 50 -174q49 -58 149 -58q147 0 235.5 124t139.5 366zM799 1266l45 209h86l-45 -209h-86zM525 1266l45 209h86l-45 -209h-86z" />
<glyph unicode="&#xf7;" horiz-adv-x="1228" d="M1235 483h-1036l14 70h1036zM707.5 932q9.5 43 47.5 73.5t81 30.5t66.5 -30.5t14 -73.5t-46 -74t-79.5 -31t-68 31t-15.5 74zM531.5 104q9.5 43 47 74t80.5 31t67 -31t14.5 -74t-46.5 -73.5t-80 -30.5t-67.5 30.5t-15 73.5z" />
<glyph unicode="&#xf8;" d="M827 926l-518 -832q45 -49 137 -49q147 0 235.5 124t139.5 366q59 276 6 391zM272 145l519 832q-47 49 -138 49q-147 0 -235 -124t-142 -367q-57 -275 -4 -390zM129 -88l90 147q-102 127 -26 478q27 125 62.5 219t90.5 174t139 123t191 43q104 0 162 -45l77 123l54 -21 l-88 -141q102 -127 28 -475q-27 -125 -63.5 -220.5t-92 -175.5t-138.5 -123t-191 -43q-96 0 -162 45l-80 -129z" />
<glyph unicode="&#xf9;" horiz-adv-x="833" d="M956 1071l-227 -1071h-78l35 162h-4q-47 -80 -129 -133.5t-184 -53.5q-121 0 -181 72q-39 47 -39 127q0 41 11 90l172 807h78l-164 -770q-12 -56 -12 -100q0 -62 24 -97q41 -59 148 -59q119 0 207.5 97.5t119.5 242.5l146 686h77zM663 1507l101 -286h-68l-131 286h98z " />
<glyph unicode="&#xfa;" horiz-adv-x="833" d="M956 1071l-227 -1071h-78l35 162h-4q-47 -80 -129 -133.5t-184 -53.5q-121 0 -181 72q-39 47 -39 127q0 41 11 90l172 807h78l-164 -770q-12 -56 -12 -100q0 -62 24 -97q41 -59 148 -59q119 0 207.5 97.5t119.5 242.5l146 686h77zM596 1221l219 286h98l-250 -286h-67z " />
<glyph unicode="&#xfb;" horiz-adv-x="833" d="M956 1071l-227 -1071h-78l35 162h-4q-47 -80 -129 -133.5t-184 -53.5q-121 0 -181 72q-39 47 -39 127q0 41 11 90l172 807h78l-164 -770q-12 -56 -12 -100q0 -62 24 -97q41 -59 148 -59q119 0 207.5 97.5t119.5 242.5l146 686h77zM442 1221l252 286h86l133 -286h-86 l-102 225l-197 -225h-86z" />
<glyph unicode="&#xfc;" horiz-adv-x="833" d="M956 1071l-227 -1071h-78l35 162h-4q-47 -80 -129 -133.5t-184 -53.5q-121 0 -181 72q-39 47 -39 127q0 41 11 90l172 807h78l-164 -770q-12 -56 -12 -100q0 -62 24 -97q41 -59 148 -59q119 0 207.5 97.5t119.5 242.5l146 686h77zM780 1266l45 209h86l-45 -209h-86z M506 1266l45 209h86l-45 -209h-86z" />
<glyph unicode="&#xfd;" horiz-adv-x="720" d="M401 111l443 960h86l-594 -1231q-53 -109 -118.5 -154.5t-160.5 -45.5q-27 0 -80 4l15 69q57 -4 67 -4q78 0 122 33t93 135l58 113l-86 1081h86l65 -960h4zM539 1221l219 286h98l-250 -286h-67z" />
<glyph unicode="&#xfe;" d="M33 -360l387 1822h78l-123 -579h4q53 98 129 155.5t190 57.5q330 0 211 -557q-121 -563 -454 -564q-111 0 -167.5 60.5t-54.5 171.5h-4l-118 -567h-78zM301 539q-55 -236 -18.5 -365t176.5 -129q76 0 136 38t103 108.5t72 153.5t53 194q49 258 10.5 372.5t-153.5 114.5 q-145 0 -235.5 -118.5t-143.5 -368.5z" />
<glyph unicode="&#xff;" horiz-adv-x="720" d="M401 111l443 960h86l-594 -1231q-53 -109 -118.5 -154.5t-160.5 -45.5q-27 0 -80 4l15 69q57 -4 67 -4q78 0 122 33t93 135l58 113l-86 1081h86l65 -960h4zM723 1266l45 209h86l-45 -209h-86zM449 1266l45 209h86l-45 -209h-86z" />
<glyph unicode="&#x131;" horiz-adv-x="303" d="M113 0l227 1071h78l-228 -1071h-77z" />
<glyph unicode="&#x141;" d="M125 0l131 616l-170 -112l20 94l170 113l160 751h86l-145 -686l444 295l-20 -94l-445 -295l-129 -604h613l-17 -78h-698z" />
<glyph unicode="&#x142;" horiz-adv-x="303" d="M113 0l141 664h-4l-137 -136l22 107l141 135l148 692h78l-131 -610h4l137 135l-23 -106l-141 -136l-158 -745h-77z" />
<glyph unicode="&#x152;" horiz-adv-x="1593" d="M958 78h611l-17 -78h-696l27 123h-4q-109 -147 -330 -148q-162 0 -245 92.5t-88 260.5t42 403q78 367 226.5 561.5t385.5 194.5q74 0 130.5 -17.5t84 -42t40 -43t14.5 -32.5h4l24 110h670l-16 -78h-584l-125 -583h541l-17 -78h-540zM932 358l160 746q33 162 -19.5 237.5 t-202.5 75.5q-203 0 -328.5 -174t-197.5 -512q-45 -215 -43 -367.5t70.5 -235.5t208.5 -83q147 0 232 75.5t120 237.5z" />
<glyph unicode="&#x153;" horiz-adv-x="1402" d="M1440 541h-557l-13 -60q-92 -436 140 -436q68 0 125 35t92 89t53 99t27 82h77q-12 -66 -43.5 -129t-80 -119.5t-119 -91.5t-150.5 -35q-115 0 -168 78t-43 193h-4q-35 -117 -126 -195t-220 -76q-102 0 -165.5 42t-85 121t-18.5 174.5t29 222.5q55 258 173 409.5 t307 151.5q127 0 182 -77t47 -192h4q43 113 131 191t205 78q320 0 201 -555zM279 537q-55 -231 -17.5 -361.5t184.5 -130.5q145 0 225.5 121t133.5 371q25 121 32 205.5t-6.5 151.5t-56.5 99.5t-121 32.5q-272 0 -374 -489zM897 610h471q25 123 24 215.5t-44 146.5t-125 54 q-121 0 -203 -111.5t-123 -304.5z" />
<glyph unicode="&#x160;" horiz-adv-x="985" d="M254 451l-16 -76q-10 -44 -10 -84q0 -88 47 -153q69 -93 225 -93q150 0 263.5 95.5t143.5 236.5q11 38 12 72q0 15 -3 28q-7 45 -18 76t-43 57.5t-64.5 44t-81.5 35.5l-154 58q-141 51 -197 133q-36 53 -35 130q0 43 11 95q37 174 167 277.5t304 103.5q199 0 273 -105 q48 -67 49 -170q0 -56 -15 -122h-86q12 57 12 105q0 81 -34 135q-55 87 -205 87q-137 0 -240.5 -71.5t-136.5 -231.5q-9 -42 -9 -78q0 -61 26 -103q42 -67 136 -102l201 -75q141 -53 197 -136q35 -52 35 -132q0 -47 -13 -105q-41 -188 -185 -298t-327 -110 q-80 0 -143.5 18.5t-100 49.5t-61 69t-33.5 82q-7 39 -7 74q0 42 9 86l21 97h86zM779 1538l-133 286h86l102 -225l197 225h86l-252 -286h-86z" />
<glyph unicode="&#x161;" horiz-adv-x="720" d="M805 770h-78l6 31q9 43 9 77q0 148 -162 148q-90 0 -159 -49t-89 -150q-7 -32 -7 -59q0 -42 17 -71q29 -48 104 -81l152 -61q142 -59 142 -205q0 -37 -9 -80q-29 -131 -135.5 -213t-237.5 -82q-84 0 -140 25t-81.5 57.5t-33.5 83.5q-5 33 -4 60q0 15 1 28q4 37 15 84 l4 29h78l-7 -35q-10 -49 -10 -89q0 -173 195 -173q111 0 180.5 63.5t89.5 159.5q6 31 7 58q0 42 -16 74q-26 52 -104 87l-145 64q-94 41 -129 104q-22 40 -22 95q0 32 8 69q29 131 125 204t227 73q227 0 227 -195q0 -44 -12 -98zM578 1221l-133 286h86l102 -225l197 225h86 l-252 -286h-86z" />
<glyph unicode="&#x178;" horiz-adv-x="909" d="M412 0l127 602l-215 860h94l184 -770l520 770h86l-583 -860l-127 -602h-86zM885 1583l45 209h86l-45 -209h-86zM611 1583l45 209h86l-45 -209h-86z" />
<glyph unicode="&#x17d;" horiz-adv-x="907" d="M35 0l18 86l1020 1298h-700l16 78h787l-19 -86l-1020 -1298h752l-17 -78h-837zM740 1538l-133 286h86l102 -225l197 225h86l-252 -286h-86z" />
<glyph unicode="&#x17e;" horiz-adv-x="684" d="M31 0l14 70l729 931h-502l15 70h587l-14 -70l-729 -931h537l-15 -70h-622zM559 1221l-133 286h86l102 -225l197 225h86l-252 -286h-86z" />
<glyph unicode="&#x192;" horiz-adv-x="983" d="M434 831l29 70h211l96 227q35 78 62.5 128.5t71.5 102.5t104.5 77.5t138.5 25.5q66 0 98 -12l-31 -70q-33 12 -84 13q-164 0 -260 -230l-110 -262h231l-30 -70h-230l-379 -923q-53 -133 -146 -200.5t-208 -67.5q-41 0 -88 14l31 72q31 -16 69 -17q98 0 159.5 57.5 t115.5 186.5l360 878h-211z" />
<glyph unicode="&#x2c6;" horiz-adv-x="303" d="M176 1221l252 286h86l133 -286h-86l-102 225l-197 -225h-86z" />
<glyph unicode="&#x2c7;" horiz-adv-x="303" d="M369 1221l-133 286h86l102 -225l197 225h86l-252 -286h-86z" />
<glyph unicode="&#x2d8;" horiz-adv-x="303" d="M633 1479h61q-18 -88 -76 -152q-82 -86 -202 -86q-66 0 -109 24.5t-57 61.5t-19.5 78t5.5 74h61q-14 -74 18 -123q35 -53 113 -53q80 0 135.5 51t69.5 125z" />
<glyph unicode="&#x2d9;" horiz-adv-x="303" d="M377 1266l45 209h86l-45 -209h-86z" />
<glyph unicode="&#x2da;" horiz-adv-x="303" d="M260 1370q16 76 81 129t140.5 53t117.5 -53t25.5 -129t-81 -129t-139 -53t-117.5 53t-27 129zM321.5 1370q-10.5 -51 17.5 -86t78 -35t93 35t53 86t-17.5 86t-77.5 35t-93 -35t-53.5 -86z" />
<glyph unicode="&#x2db;" horiz-adv-x="303" d="M231 0h62q-109 -70 -158 -124t-61 -112q-12 -53 8 -82.5t72 -29.5q53 0 100 33l12 -45q-61 -37 -139 -37q-74 0 -107.5 37.5t-19.5 111.5q14 66 74.5 132.5t156.5 115.5z" />
<glyph unicode="&#x2dc;" horiz-adv-x="303" d="M651 1462h62q-14 -61 -60.5 -118.5t-117.5 -57.5q-51 -2 -109 51l-10 11q-8 8 -11.5 10t-10.5 8t-11 8t-10 6t-11.5 6.5t-12.5 3.5t-13 1q-43 0 -67.5 -35t-32.5 -78h-62q12 59 58.5 116.5t117.5 57.5q55 2 109 -51l11 -10.5l11 -10.5t9.5 -8t11.5 -8t11 -6t11 -6 t11.5 -3t13.5 -1q45 0 68.5 35.5t33.5 78.5z" />
<glyph unicode="&#x2dd;" horiz-adv-x="303" d="M186 1221l220 286h98l-250 -286h-68zM461 1221l219 286h98l-250 -286h-67z" />
<glyph unicode="&#x3bc;" horiz-adv-x="833" d="M956 1071l-227 -1071h-78l35 162h-4q-47 -80 -129 -133.5t-184 -53.5q-111 0 -166 99h-4l-93 -434h-77l303 1431h78l-164 -770q-29 -137 12 -196.5t148 -59.5q119 0 207.5 97.5t119.5 242.5l146 686h77z" />
<glyph unicode="&#x2000;" horiz-adv-x="933" />
<glyph unicode="&#x2001;" horiz-adv-x="1869" />
<glyph unicode="&#x2002;" horiz-adv-x="933" />
<glyph unicode="&#x2003;" horiz-adv-x="1869" />
<glyph unicode="&#x2004;" horiz-adv-x="622" />
<glyph unicode="&#x2005;" horiz-adv-x="466" />
<glyph unicode="&#x2006;" horiz-adv-x="311" />
<glyph unicode="&#x2007;" horiz-adv-x="311" />
<glyph unicode="&#x2008;" horiz-adv-x="233" />
<glyph unicode="&#x2009;" horiz-adv-x="372" />
<glyph unicode="&#x200a;" horiz-adv-x="102" />
<glyph unicode="&#x2010;" horiz-adv-x="645" d="M240 522l14 70h387l-14 -70h-387z" />
<glyph unicode="&#x2011;" horiz-adv-x="645" d="M240 522l14 70h387l-14 -70h-387z" />
<glyph unicode="&#x2012;" horiz-adv-x="645" d="M240 522l14 70h387l-14 -70h-387z" />
<glyph unicode="&#x2013;" horiz-adv-x="1024" d="M111 522l14 70h1024l-14 -70h-1024z" />
<glyph unicode="&#x2014;" horiz-adv-x="2048" d="M111 522l14 70h2048l-14 -70h-2048z" />
<glyph unicode="&#x2018;" horiz-adv-x="376" d="M348 991l43 205q25 117 64 173t112 93l-14 -69q-41 -25 -61.5 -70t-36.5 -123h24l-45 -209h-86z" />
<glyph unicode="&#x2019;" horiz-adv-x="376" d="M551 1462l-43 -205q-27 -117 -64.5 -173t-111.5 -93l14 70q41 25 61.5 70t36.5 122h-24l45 209h86z" />
<glyph unicode="&#x201a;" horiz-adv-x="376" d="M285 209l-45 -205q-25 -117 -64 -173t-110 -93l14 69q41 25 61.5 70t36.5 123h-24l45 209h86z" />
<glyph unicode="&#x201c;" horiz-adv-x="606" d="M578 991l43 205q25 117 63.5 173t112.5 93l-15 -69q-41 -25 -61.5 -70t-36.5 -123h25l-45 -209h-86zM348 991l43 205q25 117 64 173t112 93l-14 -69q-41 -25 -61.5 -70t-36.5 -123h24l-45 -209h-86z" />
<glyph unicode="&#x201d;" horiz-adv-x="606" d="M551 1462l-43 -205q-27 -117 -64.5 -173t-111.5 -93l14 70q41 25 61.5 70t36.5 122h-24l45 209h86zM780 1462l-43 -205q-27 -117 -64.5 -173t-111.5 -93l14 70q41 25 61.5 70t37.5 122h-25l45 209h86z" />
<glyph unicode="&#x201e;" horiz-adv-x="606" d="M285 209l-45 -205q-25 -117 -64 -173t-110 -93l14 69q41 25 61.5 70t36.5 123h-24l45 209h86zM514 209l-45 -205q-25 -117 -63.5 -173t-110.5 -93l14 69q41 25 61.5 70t37.5 123h-25l45 209h86z" />
<glyph unicode="&#x2020;" horiz-adv-x="983" d="M465 -309h-78l260 1229h-368l16 69h369l100 473h78l-101 -473h369l-16 -69h-369z" />
<glyph unicode="&#x2021;" horiz-adv-x="983" d="M465 -309h-78l94 444h-368l14 70h369l161 756h-368l14 69h369l92 432h78l-92 -432h368l-14 -69h-369l-162 -756h369l-14 -70h-369z" />
<glyph unicode="&#x2022;" horiz-adv-x="1024" d="M303 731.5q33 151.5 162 258t279.5 106.5t235.5 -107.5t52 -257t-162 -257t-279.5 -107.5t-235.5 106.5t-52 258z" />
<glyph unicode="&#x2026;" horiz-adv-x="2048" d="M299 0l45 209h86l-45 -209h-86zM981 0l45 209h86l-45 -209h-86zM1663 0l45 209h86l-45 -209h-86z" />
<glyph unicode="&#x202f;" horiz-adv-x="372" />
<glyph unicode="&#x2030;" horiz-adv-x="1972" d="M1876 338q29 117 17.5 184.5t-43 92t-91.5 24.5q-180 0 -243 -301q-29 -117 -18 -184.5t43 -92t91 -24.5q86 0 145.5 65.5t98.5 235.5zM319 -25l934 1475h70l-934 -1475h-70zM760 1087q29 117 17.5 184.5t-43.5 92.5t-91 25q-180 0 -244 -302q-29 -117 -17.5 -184 t43.5 -92t91 -25q86 0 145.5 65.5t98.5 235.5zM1446 338q78 362 328 362q139 0 177 -94t-5 -268q-78 -362 -328 -363q-96 0 -143.5 42t-50.5 123t22 198zM330 1087q76 362 325 363q141 0 179 -94t-5 -269q-78 -362 -327 -362q-96 0 -143.5 42t-50.5 122.5t22 197.5zM823 338 q78 362 328 362q139 0 177 -94t-5 -268q-78 -362 -328 -363q-96 0 -143 42t-50.5 123t21.5 198zM1253 338q29 117 18 184.5t-43 92t-91 24.5q-180 0 -244 -301q-29 -117 -17.5 -184.5t43 -92t91.5 -24.5q86 0 145 65.5t98 235.5z" />
<glyph unicode="&#x2039;" horiz-adv-x="454" d="M395 238l-176 276l17 78l294 285l-22 -103l-219 -221l127 -213z" />
<glyph unicode="&#x203a;" horiz-adv-x="454" d="M162 238l20 102l219 221l-127 213l23 103l174 -277l-16 -78z" />
<glyph unicode="&#x2044;" horiz-adv-x="342" d="M-348 -66l1272 1557h69l-1272 -1557h-69z" />
<glyph unicode="&#x205f;" horiz-adv-x="466" />
<glyph unicode="&#x2122;" horiz-adv-x="2048" d="M549 618l166 775h-291l14 69h652l-15 -69h-291l-166 -775h-69zM1868 618l166 775h-4l-504 -775h-37l-172 775h-4l-166 -775h-70l180 844h119l160 -712l467 712h115l-181 -844h-69z" />
<glyph unicode="&#x2212;" horiz-adv-x="1228" d="M1235 483h-1036l14 70h1036z" />
<glyph unicode="&#xe000;" horiz-adv-x="1070" d="M0 1070h1070v-1070h-1070v1070z" />
<glyph unicode="&#xfb01;" horiz-adv-x="757" d="M162 0l213 1001h-146l15 70h145l39 178q45 213 234 213q53 0 77 -6l-14 -70q-27 6 -66 7q-123 0 -153 -140l-39 -182h178l-14 -70h-178l-213 -1001h-78zM567 0l228 1071h77l-227 -1071h-78zM834 1253l45 209h77l-45 -209h-77z" />
<glyph unicode="&#xfb02;" horiz-adv-x="757" d="M162 0l213 1001h-146l15 70h145l39 178q45 213 234 213q53 0 77 -6l-14 -70q-27 6 -66 7q-123 0 -153 -140l-39 -182h178l-14 -70h-178l-213 -1001h-78zM567 0l312 1462h77l-311 -1462h-78z" />
<glyph unicode="&#xfffd;" horiz-adv-x="491" />
</font>
</defs>
</svg>
