<?xml version="1.0" standalone="no"?>
<!DOCTYPE svg PUBLIC "-//W3C//DTD SVG 1.1//EN" "http://www.w3.org/Graphics/SVG/1.1/DTD/svg11.dtd" >
<svg xmlns="http://www.w3.org/2000/svg">
<metadata>
This is a custom SVG webfont generated by Font Squirrel.
Copyright   :  The digitally encoded machine readable software for producing the Typefaces licensed to you is copyrighted c 1990 Adobe Systems All Rights Reserved This software is the property of Adobe Systems Incorporated and its licensors and may not be reproduced used  displayed modified disclosed or transferred without the express  written approval of Adobe  The digitally encoded machine readable outline data for producing the Typefaces licensed to you is copyrighted c 1981 Linotype AG andor its subsidiaries All Rights Reserved This data is the property of Linotype AG andor its subsidiaries and may not be reproduced used displayed modified disclosed or  transferred without the express written approval of Linotype AG  andor its subsidiaries 18 Helvetica 37 Thin Condensed 43472 
</metadata>
<defs>
<font id="webfontHPqnwosy" horiz-adv-x="872" >
<font-face units-per-em="2048" ascent="1638" descent="-410" />
<missing-glyph horiz-adv-x="491" />
<glyph unicode=" "  horiz-adv-x="491" />
<glyph unicode="&#x09;" horiz-adv-x="491" />
<glyph unicode="&#xa0;" horiz-adv-x="491" />
<glyph unicode="!" horiz-adv-x="454" d="M184 1462h86v-471l-12 -610h-61l-13 610v471zM184 0v197h86v-197h-86z" />
<glyph unicode="&#x22;" horiz-adv-x="606" d="M154 995v467h69v-467h-69zM383 995v467h70v-467h-70z" />
<glyph unicode="#" horiz-adv-x="983" d="M598 461h-281l-63 -461h-70l64 461h-221v69h229l51 365h-223v70h231l64 460h70l-64 -460h281l63 460h70l-64 -460h221v-70h-229l-51 -365h223v-69h-231l-64 -461h-69zM606 530l51 365h-280l-51 -365h280z" />
<glyph unicode="$" horiz-adv-x="983" d="M522 692v-647q135 10 220 99t85 224.5t-63.5 202t-194.5 107.5zM461 799v581q-123 -6 -200 -78.5t-77 -214.5q0 -119 59.5 -182t188.5 -98zM461 -197v172q-113 2 -193 39t-121 98.5t-59 127t-18 141.5v45h86v-49q0 -311 305 -332v668l-72 24q-141 49 -216 128t-75 214 q0 166 99.5 266.5t263.5 104.5v143h61v-143q358 -20 359 -383h-86q0 297 -273 313v-602l86 -28q158 -53 231.5 -136.5t73.5 -238.5q0 -180 -108.5 -285.5t-282.5 -114.5v-172h-61z" />
<glyph unicode="%" horiz-adv-x="1402" d="M860 338q0 -170 45 -235.5t135 -65.5q86 0 132.5 65.5t48.5 235.5q0 170 -45.5 235.5t-135.5 65.5q-180 0 -180 -301zM352 -25l621 1475h69l-620 -1475h-70zM182 1087q0 -170 45 -235.5t135 -65.5q86 0 132.5 66t48.5 235q0 170 -45 236t-136 66q-180 -1 -180 -302z M791 338q0 362 249 362q139 0 194.5 -89t55.5 -273q0 -362 -250 -363q-141 0 -195 88.5t-54 274.5zM113 1087q0 362 249 363q139 0 194.5 -89t55.5 -274q0 -362 -250 -362q-141 0 -195 88t-54 274z" />
<glyph unicode="&#x26;" horiz-adv-x="1099" d="M985 0l-147 205q-158 -229 -410 -230q-190 0 -288.5 114t-98.5 259q0 137 62.5 224t199.5 192l86 65l-67 93q-115 156 -115 282q0 113 79 185.5t195 72.5q131 0 201 -75.5t70 -178.5q0 -180 -207 -348l-58 -47l338 -471q55 121 56 270h77q0 -186 -84 -338l197 -274h-86z M446 874l70 52q82 72 120 133t38 147q0 84 -53.5 135.5t-137.5 51.5q-94 0 -146 -55.5t-52 -145.5q0 -47 30.5 -114.5t69.5 -121.5zM793 266l-363 506l-90 -72q-104 -82 -158.5 -161.5t-54.5 -178.5q0 -137 88 -226t223 -89q214 0 355 221z" />
<glyph unicode="'" horiz-adv-x="376" d="M154 995v467h69v-467h-69z" />
<glyph unicode="(" horiz-adv-x="454" d="M451 -377h-62q-254 424 -254 919.5t254 919.5h62q-109 -180 -177.5 -421.5t-68.5 -497.5t68.5 -498t177.5 -422z" />
<glyph unicode=")" horiz-adv-x="454" d="M4 1462h62q254 -424 253.5 -919.5t-253.5 -919.5h-62q109 180 177.5 422t68.5 498t-68.5 497.5t-177.5 421.5z" />
<glyph unicode="*" horiz-adv-x="606" d="M61 1264l25 61l188 -90v227h62v-227l184 90l25 -57l-178 -86l120 -164l-53 -39l-129 180l-135 -180l-53 39l127 164z" />
<glyph unicode="+" horiz-adv-x="1228" d="M580 0v483h-484v70h484v483h69v-483h484v-70h-484v-483h-69z" />
<glyph unicode="," horiz-adv-x="491" d="M203 0v209h86v-205q0 -117 -26.5 -173t-92.5 -93v69q57 41 57 193h-24z" />
<glyph unicode="-" horiz-adv-x="645" d="M129 522v70h387v-70h-387z" />
<glyph unicode="." horiz-adv-x="491" d="M203 0v209h86v-209h-86z" />
<glyph unicode="/" horiz-adv-x="569" d="M-18 -25l524 1512h82l-525 -1512h-81z" />
<glyph unicode="0" horiz-adv-x="983" d="M172 713q0 -266 40 -417t105.5 -201t174 -50t174 52.5t105.5 202t40 413.5q0 80 -1 124t-7 124.5t-17.5 130t-35 111t-56 95t-85 58t-118 24.5t-117.5 -26.5t-85 -64.5t-56.5 -102.5t-35 -115.5t-17.5 -130t-7 -119.5t-1 -108.5zM86 713q0 379 98.5 558t307.5 179 q223 0 314 -173t91 -564q0 -393 -98.5 -565.5t-306.5 -172.5q-219 0 -312.5 175.5t-93.5 562.5z" />
<glyph unicode="1" horiz-adv-x="983" d="M500 0v1303q-53 -61 -153.5 -112.5t-192.5 -60.5v70q111 10 216 83t138 167h70v-1450h-78z" />
<glyph unicode="2" horiz-adv-x="983" d="M889 0h-795q0 305 252 506l207 164q117 94 177.5 182t60.5 211q0 143 -78 230t-217 87q-154 0 -230 -107.5t-76 -262.5h-86q0 193 104.5 316.5t295.5 123.5q61 0 121.5 -18.5t120 -59.5t95.5 -121t36 -190q0 -147 -63.5 -240.5t-203.5 -206.5l-192 -153 q-100 -82 -169 -187.5t-69 -195.5h709v-78z" />
<glyph unicode="3" horiz-adv-x="983" d="M408 723v70h63q293 0 293 294q0 137 -73 215t-206 78q-145 0 -213.5 -92t-72.5 -229h-86q0 174 101 282.5t275 108.5q162 0 261.5 -95t99.5 -265q0 -127 -63.5 -218.5t-182.5 -113.5v-4q133 -12 213 -109.5t80 -236.5q0 -193 -111.5 -313t-312.5 -120q-180 0 -279.5 110 t-107.5 292h86q0 -141 79 -236.5t226 -95.5q143 0 238.5 89t95.5 272q0 145 -86 231t-254 86h-63z" />
<glyph unicode="4" horiz-adv-x="983" d="M659 461v856h-4l-510 -856h514zM659 0v391h-591v78l583 981h86v-989h178v-70h-178v-391h-78z" />
<glyph unicode="5" horiz-adv-x="983" d="M113 678l86 747h624v-77h-559l-69 -576h4q43 78 125 123t176 45q193 0 293 -129t100 -332q0 -215 -104.5 -359.5t-311.5 -144.5q-195 0 -291 111t-96 262v14h86v-24q10 -131 88 -212t205 -81q172 0 255 120t83 308q0 176 -83 286.5t-232 110.5q-205 0 -293 -192h-86z" />
<glyph unicode="6" horiz-adv-x="983" d="M858 1120h-86q0 100 -66.5 180t-195.5 80q-346 0 -346 -704v-27h4q33 115 115 196t229 81q178 0 281.5 -121t103.5 -338q0 -223 -103.5 -357.5t-304.5 -134.5q-100 0 -175.5 40t-117.5 101.5t-68 156t-34 182.5t-8 198q0 139 9 248t38 215.5t75 177t125 113.5t185 43 q96 0 168 -37t106.5 -93t50 -106.5t15.5 -93.5zM188 444q0 -100 28 -186t99.5 -149.5t178.5 -63.5q150 0 233.5 107.5t83.5 314.5q0 172 -78 280.5t-231 108.5q-156 0 -235 -114t-79 -298z" />
<glyph unicode="7" horiz-adv-x="983" d="M895 1425v-77q-254 -291 -401.5 -703t-147.5 -645h-94q0 240 164 657.5t401 690.5h-729v77h807z" />
<glyph unicode="8" horiz-adv-x="983" d="M766 1096q0 127 -72.5 205.5t-202 78.5t-202 -78.5t-72.5 -205.5q0 -133 76 -208t199 -75q127 0 200.5 75t73.5 208zM172 391q0 -162 85 -254t235 -92q143 0 231 93t88 253q0 176 -84 264t-235 88q-141 0 -230.5 -89t-89.5 -263zM86 391q0 160 79 262.5t206 120.5v4 q-115 23 -177.5 111t-62.5 207q0 162 96.5 258t264 96t264 -96.5t96.5 -257.5q0 -119 -59.5 -205t-174.5 -113v-4q131 -18 205 -118.5t74 -264.5q0 -190 -109.5 -303t-298.5 -113q-186 0 -294.5 113t-108.5 303z" />
<glyph unicode="9" horiz-adv-x="983" d="M125 305h86q0 -100 66.5 -180t195.5 -80q346 0 346 705v28h-4q-33 -117 -115 -197.5t-229 -80.5q-178 0 -281.5 120.5t-103.5 337.5q0 223 103.5 357.5t304.5 134.5q100 0 175.5 -40t117.5 -101.5t68 -155.5t34 -182t8 -199q0 -139 -9 -247.5t-37 -216t-75 -177.5 t-126 -113t-185 -43q-96 0 -168 37t-106.5 93.5t-50 106.5t-15.5 93zM795 981q0 100 -28 186t-99.5 149.5t-178.5 63.5q-150 0 -233.5 -107.5t-83.5 -314.5q0 -172 78 -280.5t231 -108.5q156 0 235 114t79 298z" />
<glyph unicode=":" horiz-adv-x="491" d="M203 0v209h86v-209h-86zM203 809v209h86v-209h-86z" />
<glyph unicode=";" horiz-adv-x="491" d="M203 0v209h86v-205q0 -117 -26.5 -173t-92.5 -93v69q57 41 57 193h-24zM203 809v209h86v-209h-86z" />
<glyph unicode="&#x3c;" horiz-adv-x="1228" d="M96 483v70l1037 496v-62l-975 -469l975 -469v-61z" />
<glyph unicode="=" horiz-adv-x="1228" d="M96 684v70h1037v-70h-1037zM96 283v69h1037v-69h-1037z" />
<glyph unicode="&#x3e;" horiz-adv-x="1228" d="M1133 553v-70l-1037 -495v61l975 469l-975 469v62z" />
<glyph unicode="?" d="M375 375v102q0 96 34.5 171t85.5 124l100 98q50 49 85 119t35 158q0 127 -73 198.5t-196 71.5q-152 0 -220 -101.5t-68 -246.5v-27h-86v33q0 72 19.5 140.5t60.5 132t116.5 101.5t175.5 38q184 0 270.5 -101.5t86.5 -234.5q0 -100 -35 -178t-85 -127l-100 -96 q-50 -47 -85 -115t-35 -154v-106h-86zM375 0v197h86v-197h-86z" />
<glyph unicode="@" horiz-adv-x="1638" d="M467 590q0 -113 58.5 -176.5t156.5 -63.5q152 0 267.5 184.5t115.5 342.5q0 236 -195 235q-117 0 -213 -86t-143 -203.5t-47 -232.5zM1171 1141h86l-194 -598q-33 -98 -33 -121q0 -31 24.5 -51.5t57.5 -20.5q143 0 260 161t117 353q0 250 -190.5 401.5t-444.5 151.5 q-291 0 -497.5 -204.5t-206.5 -489.5q0 -193 103 -350.5t265 -242.5t340 -85q174 0 329.5 81t256.5 222h86q-96 -170 -280.5 -271.5t-391.5 -101.5q-342 0 -568.5 217.5t-226.5 544.5q0 317 230.5 533.5t556.5 216.5q311 0 518 -174t207 -451q0 -223 -157.5 -402 t-334.5 -179q-59 0 -99 36.5t-40 106.5h-4q-109 -143 -285 -143q-121 0 -197.5 88t-76.5 215q0 141 62.5 277t180 228.5t259.5 92.5q96 0 159.5 -54.5t75.5 -130.5h4z" />
<glyph unicode="A" horiz-adv-x="985" d="M752 524l-252 852h-4l-258 -852h514zM907 0l-139 455h-551l-139 -455h-86l454 1462h109l438 -1462h-86z" />
<glyph unicode="B" horiz-adv-x="1024" d="M125 0v1462h393q383 0 383 -364q0 -143 -72.5 -227.5t-197.5 -100.5v-4q154 -10 235.5 -111.5t81.5 -257.5q0 -184 -111.5 -290.5t-306.5 -106.5h-405zM211 801h281q147 0 235 73.5t88 223.5q0 295 -287 295h-317v-592zM211 70h289q184 0 273 76.5t89 252.5 q0 182 -97 257t-269 75h-285v-661z" />
<glyph unicode="C" horiz-adv-x="1024" d="M956 1042h-86q0 158 -82.5 266.5t-236.5 108.5q-207 0 -297 -177t-90 -507q0 -156 17.5 -274.5t58.5 -215t116.5 -147.5t182.5 -51q98 0 171.5 52.5t109.5 130t52.5 144t16.5 120.5h86q0 -57 -11.5 -120t-43 -135.5t-79.5 -129t-130 -94.5t-187 -38q-446 0 -446 754 q0 758 469 758q98 0 174 -33t119 -82t70.5 -112.5t36.5 -116t9 -101.5z" />
<glyph unicode="D" horiz-adv-x="1062" d="M211 70h248q231 0 335.5 160.5t104.5 500.5q0 348 -97 505t-343 157h-248v-1323zM125 0v1462h334q125 0 214 -30.5t163.5 -108.5t111.5 -225.5t37 -366.5q0 -217 -42 -366.5t-118.5 -225.5t-165 -107.5t-200.5 -31.5h-334z" />
<glyph unicode="E" d="M125 0v1462h698v-78h-612v-583h571v-78h-571v-645h631v-78h-717z" />
<glyph unicode="F" horiz-adv-x="833" d="M125 0v1462h700v-78h-614v-583h571v-78h-571v-723h-86z" />
<glyph unicode="G" horiz-adv-x="1062" d="M915 0v295h-4q-37 -152 -135 -236t-250 -84q-449 0 -448 754q0 758 469 758q98 0 174 -33t119 -82t70.5 -112.5t36.5 -115.5t9 -102h-86q0 158 -82.5 266.5t-236.5 108.5q-207 0 -297 -177t-90 -507q0 -156 17.5 -274.5t58.5 -215t116.5 -147.5t182.5 -51q100 0 172.5 45 t111.5 123t57.5 167t18.5 191v91h-401v69h487v-731h-70z" />
<glyph unicode="H" horiz-adv-x="1062" d="M125 0v1462h86v-641h641v641h86v-1462h-86v743h-641v-743h-86z" />
<glyph unicode="I" horiz-adv-x="335" d="M125 0v1462h86v-1462h-86z" />
<glyph unicode="J" horiz-adv-x="833" d="M135 428v-45q0 -338 238 -338q109 0 179.5 66.5t70.5 222.5v1128h86v-1128q0 -176 -89.5 -267.5t-240.5 -91.5q-182 0 -256 110t-74 310v33h86z" />
<glyph unicode="K" horiz-adv-x="948" d="M125 0v1462h86v-813h4l604 813h94l-458 -616l503 -846h-98l-461 774l-188 -250v-524h-86z" />
<glyph unicode="L" d="M125 0v1462h86v-1384h612v-78h-698z" />
<glyph unicode="M" horiz-adv-x="1327" d="M1130 0v1352h-4l-419 -1352h-86l-420 1352h-4v-1352h-86v1462h139l416 -1315h4l405 1315h142v-1462h-87z" />
<glyph unicode="N" horiz-adv-x="1062" d="M111 1462h114l637 -1327h4v1327h86v-1462h-112l-639 1327h-4v-1327h-86v1462z" />
<glyph unicode="O" horiz-adv-x="1099" d="M551 1487q231 0 351 -174t120 -582q0 -227 -43 -386t-117 -234.5t-148.5 -105.5t-162.5 -30q-225 0 -349 176.5t-124 579.5q0 756 473 756zM551 1417q-387 0 -387 -686q0 -215 31.5 -359.5t119.5 -235.5t236 -91q201 0 293 168t92 518q0 324 -88 505t-297 181z" />
<glyph unicode="P" horiz-adv-x="948" d="M125 0v1462h379q121 -2 205 -42t122.5 -105.5t54 -127t15.5 -130.5q0 -186 -110.5 -296t-305.5 -110h-274v-651h-86zM211 721h283q141 0 231 83t90 253q0 158 -81 247t-228 89h-295v-672z" />
<glyph unicode="Q" horiz-adv-x="1099" d="M653 362l174 -174q109 168 109 543q0 324 -88 505t-297 181q-387 0 -387 -686q0 -215 31.5 -359.5t119.5 -235.5t236 -91q135 0 231 84l-180 182zM985 -76l-154 156q-111 -104 -280 -105q-225 0 -349 176.5t-124 579.5q0 756 473 756q231 0 351 -174t120 -582 q0 -412 -141 -596l155 -160z" />
<glyph unicode="R" horiz-adv-x="1024" d="M125 0v1462h428q162 0 262 -96t100 -287q0 -150 -76.5 -249t-215.5 -113v-4q166 -10 224 -101.5t58 -261.5v-153q0 -117 49 -197h-98q-37 70 -37 199v149q0 168 -62.5 249t-230.5 81h-315v-678h-86zM211 748h274q344 0 344 331q0 147 -76.5 230.5t-211.5 83.5h-330v-645z " />
<glyph unicode="S" horiz-adv-x="985" d="M158 451v-76q0 -143 89 -236.5t242 -93.5q150 0 244 95.5t94 236.5q0 133 -64.5 198.5t-201.5 114.5l-166 58q-152 51 -224.5 133t-72.5 225q0 174 108.5 277.5t282.5 103.5q197 0 294.5 -104.5t97.5 -292.5h-86q0 154 -74 240.5t-223 86.5q-137 0 -225.5 -71.5 t-88.5 -231.5q0 -209 215 -283l217 -75q152 -53 224.5 -136t72.5 -237q0 -188 -121.5 -298t-302.5 -110q-119 0 -205.5 38t-129.5 99.5t-62.5 122t-19.5 119.5v97h86z" />
<glyph unicode="T" d="M393 0v1384h-389v78h864v-78h-389v-1384h-86z" />
<glyph unicode="U" horiz-adv-x="1024" d="M193 1462v-1075q0 -342 319 -342q156 0 237.5 92t81.5 250v1075h87v-1059q0 -227 -116 -327.5t-290 -100.5q-406 0 -406 428v1059h87z" />
<glyph unicode="V" horiz-adv-x="909" d="M401 0l-399 1462h86l365 -1364h4l364 1364h86l-399 -1462h-107z" />
<glyph unicode="W" horiz-adv-x="1441" d="M993 0l-270 1339h-4l-277 -1339h-102l-317 1462h86l280 -1339h4l275 1339h104l277 -1339h4l280 1339h86l-319 -1462h-107z" />
<glyph unicode="X" horiz-adv-x="948" d="M838 0l-365 664l-364 -664h-93l414 743l-379 719h86l340 -633l344 633h86l-385 -719l410 -743h-94z" />
<glyph unicode="Y" horiz-adv-x="909" d="M412 0v602l-400 860h94l349 -770l356 770h86l-399 -860v-602h-86z" />
<glyph unicode="Z" horiz-adv-x="907" d="M35 0v86l743 1298h-700v78h786v-86l-743 -1298h751v-78h-837z" />
<glyph unicode="[" horiz-adv-x="454" d="M168 -377v1839h274v-61h-204v-1716h204v-62h-274z" />
<glyph unicode="\" horiz-adv-x="569" d="M63 1487l525 -1512h-82l-524 1512h81z" />
<glyph unicode="]" horiz-adv-x="454" d="M287 1462v-1839h-275v62h205v1716h-205v61h275z" />
<glyph unicode="^" horiz-adv-x="1228" d="M96 498l484 927h69l484 -927h-62l-457 874l-456 -874h-62z" />
<glyph unicode="_" horiz-adv-x="1024" d="M1024 -256h-1024v102h1024v-102z" />
<glyph unicode="`" horiz-adv-x="303" d="M78 1507l160 -286h-68l-190 286h98z" />
<glyph unicode="a" horiz-adv-x="796" d="M680 813v-684q0 -72 47 -72q31 0 49 11v-62q-25 -18 -82 -18q-31 0 -61.5 29.5t-30.5 86.5v68h-4q-25 -86 -100.5 -141.5t-180.5 -55.5q-133 0 -200.5 83t-67.5 216q0 123 52.5 194t164.5 101l232 64q66 18 85 51t19 107q0 135 -54 185t-153 50q-233 0 -233 -260h-78 q0 135 67.5 232.5t235.5 97.5q164 0 228.5 -76t64.5 -207zM602 403v222h-4q-12 -20 -31.5 -33.5t-36 -19t-67.5 -19.5l-158 -43q-92 -25 -131 -81t-39 -155q0 -109 49 -169t148 -60q133 0 201.5 96t68.5 262z" />
<glyph unicode="b" d="M109 0v1462h77v-579h4q72 213 275 213q129 0 204.5 -78t100.5 -192.5t25 -286.5q0 -563 -334 -564q-111 0 -180.5 60.5t-90.5 171.5h-4v-207h-77zM463 1026q-145 0 -211 -119t-66 -368q0 -244 61.5 -369t201.5 -125q100 0 160.5 69.5t80 172t19.5 252.5 q0 256 -56.5 371.5t-189.5 115.5z" />
<glyph unicode="c" horiz-adv-x="796" d="M670 350h86q0 -47 -14.5 -102t-47 -121t-103.5 -109t-167 -43q-193 0 -269.5 148.5t-76.5 417.5q0 555 360 555q90 0 157 -40t97.5 -98.5t44 -107.5t13.5 -86h-86q0 45 -16.5 99.5t-72 108.5t-139.5 54q-272 0 -272 -489q0 -256 63.5 -374t208.5 -118q70 0 119 35 t72.5 89t33 99t9.5 82z" />
<glyph unicode="d" d="M686 0v207h-4q-20 -111 -90 -171.5t-180 -60.5q-334 0 -334 564q0 268 75.5 412.5t262.5 144.5q195 0 266 -213h4v579h78v-1462h-78zM164 539q0 -150 19.5 -252.5t80 -172t160.5 -69.5q139 0 200.5 125t61.5 376q0 480 -266 480q-135 0 -195.5 -118.5t-60.5 -368.5z" />
<glyph unicode="e" horiz-adv-x="833" d="M164 610h520q0 84 -9 148.5t-34 130t-77 101.5t-132 36q-84 0 -141.5 -43t-83 -114.5t-34.5 -132t-9 -126.5zM770 541h-606q0 -59 2 -98.5t8 -106t22.5 -110.5t43 -89t71.5 -68.5t105 -23.5q78 0 134 35t81.5 89t36 98t10.5 83h78q0 -143 -83 -259t-249 -116 q-197 0 -271.5 147.5t-74.5 442.5q0 252 90 391.5t268 139.5q180 0 257 -140.5t77 -414.5z" />
<glyph unicode="f" horiz-adv-x="417" d="M162 0v1001h-146v70h146v178q0 213 188 213q53 0 80 -6v-70q-29 6 -68 7q-123 0 -122 -140v-182h178v-70h-178v-1001h-78z" />
<glyph unicode="g" d="M164 541q0 -225 58.5 -348t201.5 -123q262 0 262 487q0 469 -252 469q-135 0 -202.5 -110.5t-67.5 -374.5zM764 1071v-1012q0 -213 -78 -324.5t-266 -111.5q-78 0 -135.5 23.5t-86 54.5t-45 72t-20.5 66.5t-4 49.5h78q0 -88 56 -142t165 -54q135 0 196.5 78.5t61.5 248.5 v197h-6q-18 -59 -44 -100t-87.5 -79t-149.5 -38q-322 0 -321 541q0 121 13 212t48 173t104.5 126t172.5 44q201 0 266 -203h4v178h78z" />
<glyph unicode="h" horiz-adv-x="833" d="M104 0v1462h78v-553h4q31 80 100.5 133.5t172.5 53.5q121 0 195.5 -72t74.5 -217v-807h-78v770q0 137 -54 196.5t-159 59.5q-119 0 -187.5 -97.5t-68.5 -242.5v-686h-78z" />
<glyph unicode="i" horiz-adv-x="303" d="M113 0v1071h77v-1071h-77zM113 1253v209h77v-209h-77z" />
<glyph unicode="j" horiz-adv-x="303" d="M-78 -360v69q37 -4 58 -4q39 0 64.5 8t47 44t21.5 100v1214h77v-1206q0 -229 -194 -230q-25 1 -74 5zM113 1253v209h77v-209h-77z" />
<glyph unicode="k" horiz-adv-x="796" d="M104 0v1462h78v-960h4l463 569h99l-332 -397l391 -674h-98l-349 604l-178 -211v-393h-78z" />
<glyph unicode="l" horiz-adv-x="303" d="M113 0v1462h77v-1462h-77z" />
<glyph unicode="m" horiz-adv-x="1327" d="M117 0v1071h78v-160h4q23 84 91 134.5t167 50.5q203 0 231 -201h4q14 72 82 136.5t180 64.5q125 0 190.5 -72t65.5 -201v-823h-77v805q0 106 -50.5 163.5t-134.5 57.5q-117 0 -181.5 -87t-64.5 -228v-711h-77v768q0 258 -189 258q-119 0 -180 -90t-61 -225v-711h-78z" />
<glyph unicode="n" horiz-adv-x="833" d="M104 0v1071h78v-162h4q31 80 100.5 133.5t172.5 53.5q121 0 195.5 -72t74.5 -217v-807h-78v770q0 137 -54 196.5t-159 59.5q-119 0 -187.5 -97.5t-68.5 -242.5v-686h-78z" />
<glyph unicode="o" d="M795 537q0 -125 -16.5 -220.5t-55.5 -175.5t-112.5 -123t-180.5 -43q-102 0 -174 43t-108.5 123t-53 175.5t-16.5 220.5t16.5 219t55 174t112.5 123t180 43q102 0 174 -43t109 -123t53.5 -175t16.5 -218zM709 535q0 244 -62.5 367.5t-210 123.5t-210 -124t-62.5 -367 q0 -242 62.5 -366t210 -124t210 124t62.5 366z" />
<glyph unicode="p" d="M109 -360v1431h77v-188h4q72 213 275 213q330 0 330 -557q0 -563 -334 -564q-111 0 -180.5 60.5t-90.5 171.5h-4v-567h-77zM186 539q0 -244 61.5 -369t201.5 -125q100 0 160.5 69.5t80 172t19.5 252.5q0 248 -65.5 367.5t-180.5 119.5q-145 0 -211 -118.5t-66 -368.5z " />
<glyph unicode="q" d="M686 -360v567h-4q-20 -111 -90 -171.5t-180 -60.5q-334 0 -334 564q0 260 75.5 408.5t262.5 148.5q195 0 266 -213h4v188h78v-1431h-78zM164 539q0 -150 19.5 -252.5t80 -172t160.5 -69.5q139 0 200.5 125t61.5 369q0 487 -266 487q-256 0 -256 -487z" />
<glyph unicode="r" horiz-adv-x="493" d="M104 0v1071h78v-186h4q68 211 269 211h45v-70h-45q-129 0 -201 -101.5t-72 -244.5v-680h-78z" />
<glyph unicode="s" horiz-adv-x="720" d="M641 770h-78v31q0 225 -201 225q-92 0 -149 -49t-57 -150q0 -82 38.5 -130t120.5 -81l164 -61q195 -74 195 -285q0 -131 -89 -213t-220 -82q-84 0 -146.5 25t-94.5 57.5t-50.5 84t-22.5 88t-4 83.5v29h78v-35q0 -262 240 -262q113 0 168 63.5t55 159.5q0 156 -160 219 l-158 64q-102 41 -151 104.5t-49 163.5q0 131 80.5 204t211.5 73q279 0 279 -293v-33z" />
<glyph unicode="t" horiz-adv-x="417" d="M16 1001v70h146v318h78v-318h178v-70h-178v-825q0 -119 94 -119q55 0 96 13v-70q-57 -12 -111 -12q-158 0 -157 180v833h-146z" />
<glyph unicode="u" horiz-adv-x="833" d="M729 1071v-1071h-78v162h-4q-31 -80 -100.5 -133.5t-171.5 -53.5q-121 0 -196 72t-75 217v807h78v-770q0 -137 54.5 -196.5t158.5 -59.5q119 0 187.5 97.5t68.5 242.5v686h78z" />
<glyph unicode="v" horiz-adv-x="720" d="M412 0h-93l-301 1071h86l261 -973h4l247 973h86z" />
<glyph unicode="w" horiz-adv-x="1099" d="M758 0l-203 961h-4l-211 -961h-98l-230 1071h86l191 -960h4l211 960h98l203 -960h4l192 960h86l-231 -1071h-98z" />
<glyph unicode="x" horiz-adv-x="720" d="M27 0l288 551l-274 520h96l225 -455l232 455h86l-272 -520l286 -551h-96l-240 483l-245 -483h-86z" />
<glyph unicode="y" horiz-adv-x="720" d="M379 111l237 960h86l-331 -1231q-31 -109 -86.5 -154.5t-151.5 -45.5q-27 0 -80 4v69q57 -4 68 -4q78 0 114.5 33t65.5 135l33 113l-316 1081h86l271 -960h4z" />
<glyph unicode="z" horiz-adv-x="684" d="M31 0v70l530 931h-502v70h588v-70l-530 -931h536v-70h-622z" />
<glyph unicode="{" horiz-adv-x="454" d="M59 512v61q145 0 146 304v344q0 133 44 187t134 54h100v-61h-104q-57 0 -81 -44t-24 -136v-340q0 -100 -16 -170t-43 -103t-46 -46t-40 -17v-4q145 -31 145 -334v-342q0 -92 24 -136t81 -44h104v-62h-100q-90 0 -134 54.5t-44 187.5v344q-1 303 -146 303z" />
<glyph unicode="|" horiz-adv-x="454" d="M188 -25v1512h78v-1512h-78z" />
<glyph unicode="}" horiz-adv-x="454" d="M395 573v-61q-145 0 -145 -303v-344q0 -133 -44 -187.5t-134 -54.5h-101v62h105q57 0 80.5 44t23.5 136v340q0 100 16.5 169.5t43 102.5t46 46.5t40.5 17.5v4q-145 31 -146 334v342q0 92 -23.5 136t-80.5 44h-105v61h101q90 0 134 -54t44 -187v-344q0 -304 145 -304z" />
<glyph unicode="~" horiz-adv-x="1228" d="M195 408l-48 45q37 57 63 86.5t75 56.5t112 27q86 0 226 -70q143 -70 221 -70q45 0 87 29t57 50l46 67l47 -45q-37 -57 -62.5 -87t-74.5 -56.5t-113 -26.5q-86 0 -225 69q-143 70 -221 70q-45 0 -87 -28.5t-57 -50.5z" />
<glyph unicode="&#xa1;" horiz-adv-x="454" d="M197 737h61l12 -610v-479h-86v479zM184 1110h86v-197h-86v197z" />
<glyph unicode="&#xa2;" horiz-adv-x="983" d="M481 45v981q-242 -31 -241 -489q0 -240 56 -359t185 -133zM481 -211v186q-96 4 -161.5 48.5t-101.5 123t-50 174t-14 220.5q0 526 327 555v159h49v-159q86 -4 148.5 -45t92.5 -98.5t42 -104.5t12 -84h-86q0 43 -15 95t-66.5 106.5t-127.5 60.5v-981q82 6 134.5 69.5 t65.5 123t13 112.5h86q0 -35 -7 -74.5t-26.5 -92t-51 -95.5t-87 -74.5t-127.5 -38.5v-186h-49z" />
<glyph unicode="&#xa3;" horiz-adv-x="983" d="M57 684v70h179l-26 41l-29 47l-24 44q-17 32 -24.5 51t-17 48t-13.5 55.5t-4 53.5q0 154 112 255t279 101q205 0 307.5 -121t102.5 -303h-86q0 162 -79 258t-249 96q-123 0 -212 -76.5t-89 -201.5q0 -29 7.5 -61.5t15.5 -57.5t26.5 -64.5l26.5 -55.5l33 -59 q25 -44 29 -50h286v-70h-258q39 -96 39 -184q0 -233 -250 -439l4 -4q94 63 170 64q59 0 156 -37q104 -39 156 -39q121 0 270 121l39 -57q-152 -133 -305 -134q-63 0 -168 39q-100 37 -178 37q-94 0 -187 -69l-47 69q254 238 254 449q0 96 -39 184h-207z" />
<glyph unicode="&#xa4;" horiz-adv-x="983" d="M59 328l101 102q-104 115 -105 283q0 164 105 284l-101 101l47 47l103 -101q117 104 283 105q168 0 282 -105l103 101l47 -47l-101 -101q104 -121 105 -284q0 -168 -105 -283l101 -102l-47 -47l-103 100q-117 -104 -282.5 -104.5t-282.5 104.5l-103 -100zM491.5 346 q147.5 0 253 106.5t105.5 260t-105.5 260t-253 106.5t-253 -106.5t-105.5 -260t105.5 -260t253 -106.5z" />
<glyph unicode="&#xa5;" horiz-adv-x="983" d="M449 0v350h-277v70h277v168h-277v69h242l-365 768h94l349 -751l356 751h86l-365 -768h258v-69h-292v-168h292v-70h-292v-350h-86z" />
<glyph unicode="&#xa6;" horiz-adv-x="454" d="M188 -25v545h78v-545h-78zM188 942v545h78v-545h-78z" />
<glyph unicode="&#xa7;" horiz-adv-x="985" d="M362 453l279 -193q180 96 180 240q0 135 -131 223l-340 227q-186 -90 -186 -254q0 -51 34.5 -100t65 -72.5t98.5 -70.5zM160 41h86v-31q0 -111 65.5 -180.5t182 -69.5t183 57.5t66.5 153.5q0 57 -36.5 112.5t-75.5 87.5t-109 79l-291 194q-154 100 -153 250 q0 193 217 297q-59 51 -89 97.5t-30 117.5q0 131 95.5 206t236.5 75q156 0 236.5 -88t80.5 -199v-12h-86v12q0 86 -59 151.5t-172 65.5q-121 0 -183.5 -60.5t-62.5 -150.5q0 -66 41 -111.5t137 -111.5l314 -211q154 -102 153 -268q0 -174 -211 -285q133 -109 133 -246 q0 -113 -86 -197.5t-245 -84.5q-164 0 -251 90t-87 215v45z" />
<glyph unicode="&#xa8;" horiz-adv-x="303" d="M246 1266v209h86v-209h-86zM-29 1266v209h86v-209h-86z" />
<glyph unicode="&#xa9;" horiz-adv-x="1638" d="M1233 895h-86q-23 119 -108 183.5t-220 64.5q-166 0 -260 -124t-94 -286q0 -176 97 -296t257 -120q262 0 328 261h86q-23 -150 -133.5 -240t-280.5 -90q-195 0 -317.5 128t-122.5 357q0 217 127 348t313 131q174 0 281.5 -79.5t132.5 -237.5zM63 731q0 313 221.5 534.5 t535 221.5t534.5 -221.5t221 -534.5t-221 -534.5t-534.5 -221.5t-535 221.5t-221.5 534.5zM141 731.5q0 -280.5 199 -479.5t479.5 -199t479 199t198.5 479.5t-198.5 479t-479 198.5t-479.5 -198.5t-199 -479z" />
<glyph unicode="&#xaa;" horiz-adv-x="565" d="M127 1251h-70q0 82 46.5 140.5t162.5 58.5q115 0 157 -46t42 -130v-406q0 -51 31 -51q16 0 32 6v-39q-18 -12 -49 -12q-84 0 -84 72v30h-4q-57 -102 -188 -102q-82 0 -124 50t-42 128q0 145 143 189l129 39q47 14 66.5 30.5t19.5 57.5q0 70 -33.5 96.5t-97.5 26.5 q-137 -1 -137 -138zM395 1018v143h-4q-16 -12 -84 -35l-104 -32q-96 -29 -97 -138q0 -53 30 -87.5t85 -34.5q82 0 128 53t46 131z" />
<glyph unicode="&#xab;" horiz-adv-x="681" d="M575 238l-233 276v78l233 285v-103l-172 -221l172 -213v-102zM340 238l-234 276v78l234 285v-103l-172 -221l172 -213v-102z" />
<glyph unicode="&#xac;" horiz-adv-x="1228" d="M1063 221v463h-967v70h1037v-533h-70z" />
<glyph unicode="&#xad;" horiz-adv-x="645" d="M129 522v70h387v-70h-387z" />
<glyph unicode="&#xae;" horiz-adv-x="1638" d="M537 285v897h344q297 0 297 -250q0 -106 -64.5 -165.5t-167.5 -76.5l266 -405h-92l-266 407h-231v-407h-86zM623 1112v-350h227q242 0 242 172q0 178 -222 178h-247zM141 731.5q0 -280.5 199 -479.5t479.5 -199t479 199t198.5 479.5t-198.5 479t-479 198.5t-479.5 -198.5 t-199 -479zM63 731q0 313 221.5 534.5t535 221.5t534.5 -221.5t221 -534.5t-221 -534.5t-534.5 -221.5t-535 221.5t-221.5 534.5z" />
<glyph unicode="&#xaf;" horiz-adv-x="303" d="M-70 1333v62h443v-62h-443z" />
<glyph unicode="&#xb0;" horiz-adv-x="819" d="M117 1157q0 121 86 207t206.5 86t206.5 -86t86 -207t-86 -207t-206.5 -86t-206.5 86t-86 207zM186 1157q0 -92 65.5 -157.5t158 -65.5t158 65.5t65.5 157.5t-65.5 157.5t-158 65.5t-158 -65.5t-65.5 -157.5z" />
<glyph unicode="&#xb1;" horiz-adv-x="1228" d="M580 643v393h69v-393h484v-70h-484v-393h-69v393h-484v70h484zM96 0v70h1037v-70h-1037z" />
<glyph unicode="&#xb2;" horiz-adv-x="641" d="M580 573h-519v31q0 170 154 281l139 100q78 57 117 108.5t39 116.5q0 82 -48 130.5t-130 48.5q-106 0 -153.5 -58.5t-47.5 -146.5h-70q0 119 69 192.5t200 73.5q100 0 175 -52t75 -171q0 -98 -42 -156.5t-137 -128.5l-153 -113q-117 -86 -117 -194h449v-62z" />
<glyph unicode="&#xb3;" horiz-adv-x="641" d="M268 997v62h35q88 0 137 46t49 124q0 74 -45 117t-125 43q-90 0 -134 -51.5t-46 -123.5h-69q0 106 68.5 171t191.5 65q102 0 165.5 -57.5t63.5 -159.5q0 -76 -41 -131t-119 -68v-6q94 -12 142.5 -66.5t48.5 -140.5q0 -117 -72 -189.5t-199 -72.5q-137 0 -202.5 68.5 t-65.5 175.5h70q0 -72 50 -127t142 -55q84 0 145.5 51t61.5 147q0 178 -217 178h-35z" />
<glyph unicode="&#xb4;" horiz-adv-x="303" d="M70 1221l159 286h99l-191 -286h-67z" />
<glyph unicode="&#xb6;" horiz-adv-x="1228" d="M555 -285v944q-184 0 -302 105.5t-118 296.5q0 193 124 297t333 104h383v-1747h-78v1678h-264v-1678h-78zM555 729v664q-145 0 -239.5 -88t-94.5 -244t94.5 -244t239.5 -88z" />
<glyph unicode="&#xb7;" horiz-adv-x="491" d="M141 676q0 43 31 73.5t74 30.5t73.5 -30.5t30.5 -73.5t-30.5 -74t-73.5 -31t-74 31t-31 74z" />
<glyph unicode="&#xb8;" horiz-adv-x="303" d="M150 0h61l-86 -117l4 -4q27 10 78 10q57 0 99 -37.5t42 -97.5q0 -57 -52 -104t-150.5 -47t-172.5 37l19 45q70 -33 158 -33q129 0 129 100q0 88 -111 88q-51 0 -109 -28l-20 24z" />
<glyph unicode="&#xb9;" horiz-adv-x="641" d="M319 573v779q-33 -37 -97 -68t-128 -35v62q74 6 143.5 48t90.5 91h61v-877h-70z" />
<glyph unicode="&#xba;" horiz-adv-x="641" d="M321.5 772q-135.5 0 -187.5 88t-52 252q0 162 52 250t187.5 88t186.5 -88t51 -250q0 -164 -51 -252t-186.5 -88zM152 1112q0 -279 167 -278q170 0 170 278q0 276 -170 277q-167 -1 -167 -277z" />
<glyph unicode="&#xbb;" horiz-adv-x="681" d="M106 238v102l173 221l-173 213v103l234 -277v-78zM342 238v102l172 221l-172 213v103l233 -277v-78z" />
<glyph unicode="&#xbc;" horiz-adv-x="1476" d="M1227 283v495h-4l-322 -495h326zM1227 0v221h-396v72l379 584h86v-594h121v-62h-121v-221h-69zM197 -66l940 1557h69l-940 -1557h-69zM285 573v779q-33 -37 -97.5 -68t-128.5 -35v62q74 6 143.5 48t90.5 91h61v-877h-69z" />
<glyph unicode="&#xbd;" horiz-adv-x="1476" d="M174 -66l940 1557h70l-940 -1557h-70zM285 573v779q-33 -37 -97.5 -68t-128.5 -35v62q74 6 143.5 48t90.5 91h61v-877h-69zM1417 0h-518v31q0 170 154 280l139 101q78 57 117 108t39 117q0 82 -48.5 130t-130.5 48q-106 0 -153 -58.5t-47 -146.5h-70q0 119 68.5 193 t199.5 74q100 0 175 -52.5t75 -171.5q0 -98 -42 -156.5t-136 -127.5l-154 -113q-117 -86 -116 -195h448v-61z" />
<glyph unicode="&#xbe;" horiz-adv-x="1476" d="M1227 283v495h-4l-322 -495h326zM1227 0v221h-396v72l379 584h86v-594h121v-62h-121v-221h-69zM268 -66l940 1557h70l-940 -1557h-70zM268 997v62h35q88 0 137 46t49 124q0 74 -45 117t-125 43q-90 0 -134 -51.5t-46 -123.5h-69q0 106 68.5 171t191.5 65 q102 0 165.5 -57.5t63.5 -159.5q0 -76 -41 -131t-119 -68v-6q94 -12 142.5 -66.5t48.5 -140.5q0 -117 -72 -189.5t-199 -72.5q-137 0 -202.5 68.5t-65.5 175.5h70q0 -72 50 -127t142 -55q84 0 145.5 51t61.5 147q0 178 -217 178h-35z" />
<glyph unicode="&#xbf;" d="M498 735v-102q0 -96 -35 -171t-85 -124l-100 -98q-50 -49 -85 -119t-35 -158q0 -127 72.5 -198.5t195.5 -71.5q152 0 220.5 101.5t68.5 246.5v27h86v-33q0 -72 -19.5 -140.5t-60.5 -132t-117 -101.5t-176 -38q-184 0 -270 101.5t-86 234.5q0 100 34.5 178t84.5 127 l101 96q50 47 85 115t35 154v106h86zM412 1110h86v-197h-86v197z" />
<glyph unicode="&#xc0;" horiz-adv-x="985" d="M752 524l-252 852h-4l-258 -852h514zM907 0l-139 455h-551l-139 -455h-86l454 1462h109l438 -1462h-86zM420 1824l160 -286h-68l-190 286h98z" />
<glyph unicode="&#xc1;" horiz-adv-x="985" d="M752 524l-252 852h-4l-258 -852h514zM907 0l-139 455h-551l-139 -455h-86l454 1462h109l438 -1462h-86zM412 1538l159 286h99l-191 -286h-67z" />
<glyph unicode="&#xc2;" horiz-adv-x="985" d="M752 524l-252 852h-4l-258 -852h514zM907 0l-139 455h-551l-139 -455h-86l454 1462h109l438 -1462h-86zM258 1538l193 286h86l192 -286h-86l-149 225l-150 -225h-86z" />
<glyph unicode="&#xc3;" horiz-adv-x="985" d="M752 524l-252 852h-4l-258 -852h514zM907 0l-139 455h-551l-139 -455h-86l454 1462h109l438 -1462h-86zM682 1779h61q0 -61 -33.5 -118.5t-105.5 -57.5q-51 -2 -120.5 51.5t-100.5 53.5q-78 0 -78 -113h-61q0 59 33.5 116.5t105.5 57.5q55 2 121 -51q70 -53 100 -53 q78 -1 78 114z" />
<glyph unicode="&#xc4;" horiz-adv-x="985" d="M752 524l-252 852h-4l-258 -852h514zM907 0l-139 455h-551l-139 -455h-86l454 1462h109l438 -1462h-86zM588 1583v209h86v-209h-86zM313 1583v209h86v-209h-86z" />
<glyph unicode="&#xc5;" horiz-adv-x="985" d="M752 524l-252 852h-4l-258 -852h514zM907 0l-139 455h-551l-139 -455h-86l454 1462h109l438 -1462h-86zM311 1687q0 76 53.5 129t129 53t129 -53t53.5 -129t-53.5 -129t-129 -53t-129 53t-53.5 129zM373 1687q0 -51 34.5 -86t86 -35t86 35t34.5 86t-34.5 86t-86 35 t-86 -35t-34.5 -86z" />
<glyph unicode="&#xc6;" horiz-adv-x="1441" d="M303 524h385v860h-14zM688 0v455h-414l-190 -455h-92l629 1462h765v-78h-612v-583h572v-78h-572v-645h633v-78h-719z" />
<glyph unicode="&#xc7;" horiz-adv-x="1024" d="M434 -164l94 139h-4q-446 0 -446 754q0 758 469 758q98 0 174 -33t119 -82t70.5 -112.5t36.5 -115.5t9 -102h-86q0 158 -82.5 266.5t-236.5 108.5q-207 0 -297 -177t-90 -507q0 -156 17.5 -274.5t58.5 -215t116.5 -147.5t182.5 -51q98 0 171.5 52.5t109.5 130t52.5 144 t16.5 120.5h86q0 -70 -17.5 -145t-57.5 -156.5t-120 -140t-188 -70.5l-72 -97l4 -4q27 10 78 10q57 0 99 -37.5t42 -97.5q0 -57 -52 -104t-150.5 -47t-171.5 37l18 45q70 -33 158 -33q129 0 129 100q0 88 -111 88q-51 0 -108 -28z" />
<glyph unicode="&#xc8;" d="M125 0v1462h698v-78h-612v-583h571v-78h-571v-645h631v-78h-717zM397 1824l160 -286h-68l-190 286h98z" />
<glyph unicode="&#xc9;" d="M125 0v1462h698v-78h-612v-583h571v-78h-571v-645h631v-78h-717zM389 1538l159 286h99l-191 -286h-67z" />
<glyph unicode="&#xca;" d="M125 0v1462h698v-78h-612v-583h571v-78h-571v-645h631v-78h-717zM235 1538l193 286h86l192 -286h-86l-149 225l-150 -225h-86z" />
<glyph unicode="&#xcb;" d="M125 0v1462h698v-78h-612v-583h571v-78h-571v-645h631v-78h-717zM565 1583v209h86v-209h-86zM290 1583v209h86v-209h-86z" />
<glyph unicode="&#xcc;" horiz-adv-x="335" d="M125 0v1462h86v-1462h-86zM94 1824l160 -286h-68l-190 286h98z" />
<glyph unicode="&#xcd;" horiz-adv-x="335" d="M125 0v1462h86v-1462h-86zM86 1538l159 286h99l-191 -286h-67z" />
<glyph unicode="&#xce;" horiz-adv-x="335" d="M125 0v1462h86v-1462h-86zM-68 1538l193 286h86l192 -286h-86l-149 225l-150 -225h-86z" />
<glyph unicode="&#xcf;" horiz-adv-x="335" d="M125 0v1462h86v-1462h-86zM262 1583v209h86v-209h-86zM-13 1583v209h86v-209h-86z" />
<glyph unicode="&#xd0;" horiz-adv-x="1062" d="M125 0v727h-123v74h123v661h334q125 0 214 -30.5t163.5 -108.5t111.5 -225.5t37 -366.5q0 -217 -42 -366.5t-118.5 -225.5t-165 -107.5t-200.5 -31.5h-334zM580 727h-369v-657h248q231 0 335.5 160.5t104.5 500.5q0 348 -97 505t-343 157h-248v-592h369v-74z" />
<glyph unicode="&#xd1;" horiz-adv-x="1062" d="M111 1462h114l637 -1327h4v1327h86v-1462h-112l-639 1327h-4v-1327h-86v1462zM721 1779h61q0 -61 -33.5 -118.5t-105.5 -57.5q-51 -2 -120.5 51.5t-100.5 53.5q-78 0 -78 -113h-61q0 59 33.5 116.5t105.5 57.5q55 2 121 -51q70 -53 100 -53q78 -1 78 114z" />
<glyph unicode="&#xd2;" horiz-adv-x="1099" d="M551 1487q231 0 351 -174t120 -582q0 -227 -43 -386t-117 -234.5t-148.5 -105.5t-162.5 -30q-225 0 -349 176.5t-124 579.5q0 756 473 756zM551 1417q-387 0 -387 -686q0 -215 31.5 -359.5t119.5 -235.5t236 -91q201 0 293 168t92 518q0 324 -88 505t-297 181zM477 1824 l160 -286h-68l-190 286h98z" />
<glyph unicode="&#xd3;" horiz-adv-x="1099" d="M551 1487q231 0 351 -174t120 -582q0 -227 -43 -386t-117 -234.5t-148.5 -105.5t-162.5 -30q-225 0 -349 176.5t-124 579.5q0 756 473 756zM551 1417q-387 0 -387 -686q0 -215 31.5 -359.5t119.5 -235.5t236 -91q201 0 293 168t92 518q0 324 -88 505t-297 181zM469 1538 l159 286h99l-191 -286h-67z" />
<glyph unicode="&#xd4;" horiz-adv-x="1099" d="M551 1487q231 0 351 -174t120 -582q0 -227 -43 -386t-117 -234.5t-148.5 -105.5t-162.5 -30q-225 0 -349 176.5t-124 579.5q0 756 473 756zM551 1417q-387 0 -387 -686q0 -215 31.5 -359.5t119.5 -235.5t236 -91q201 0 293 168t92 518q0 324 -88 505t-297 181zM315 1538 l193 286h86l192 -286h-86l-149 225l-150 -225h-86z" />
<glyph unicode="&#xd5;" horiz-adv-x="1099" d="M551 1487q231 0 351 -174t120 -582q0 -227 -43 -386t-117 -234.5t-148.5 -105.5t-162.5 -30q-225 0 -349 176.5t-124 579.5q0 756 473 756zM551 1417q-387 0 -387 -686q0 -215 31.5 -359.5t119.5 -235.5t236 -91q201 0 293 168t92 518q0 324 -88 505t-297 181zM739 1779 h61q0 -61 -33.5 -118.5t-105.5 -57.5q-51 -2 -120.5 51.5t-100.5 53.5q-78 0 -78 -113h-61q0 59 33.5 116.5t105.5 57.5q55 2 121 -51q70 -53 100 -53q78 -1 78 114z" />
<glyph unicode="&#xd6;" horiz-adv-x="1099" d="M551 1487q231 0 351 -174t120 -582q0 -227 -43 -386t-117 -234.5t-148.5 -105.5t-162.5 -30q-225 0 -349 176.5t-124 579.5q0 756 473 756zM551 1417q-387 0 -387 -686q0 -215 31.5 -359.5t119.5 -235.5t236 -91q201 0 293 168t92 518q0 324 -88 505t-297 181zM645 1583 v209h86v-209h-86zM370 1583v209h86v-209h-86z" />
<glyph unicode="&#xd7;" horiz-adv-x="1228" d="M614 475l-403 -403l-43 45l403 401l-403 404l43 43l403 -404l404 404l43 -43l-404 -404l404 -401l-43 -45z" />
<glyph unicode="&#xd8;" horiz-adv-x="1099" d="M285 170l475 1178q-84 70 -209 69q-387 0 -387 -686q0 -403 121 -561zM815 1288l-477 -1173q82 -70 213 -70q201 0 293 168t92 518q0 397 -121 557zM180 -84l72 176q-174 174 -174 639q0 756 473 756q147 0 240 -64l57 140l67 -25l-65 -162q172 -172 172 -645 q0 -227 -43 -386t-117 -234.5t-148.5 -105.5t-162.5 -30q-145 0 -242 68l-61 -152z" />
<glyph unicode="&#xd9;" horiz-adv-x="1024" d="M193 1462v-1075q0 -342 319 -342q156 0 237.5 92t81.5 250v1075h87v-1059q0 -227 -116 -327.5t-290 -100.5q-406 0 -406 428v1059h87zM438 1824l160 -286h-68l-190 286h98z" />
<glyph unicode="&#xda;" horiz-adv-x="1024" d="M193 1462v-1075q0 -342 319 -342q156 0 237.5 92t81.5 250v1075h87v-1059q0 -227 -116 -327.5t-290 -100.5q-406 0 -406 428v1059h87zM430 1538l159 286h99l-191 -286h-67z" />
<glyph unicode="&#xdb;" horiz-adv-x="1024" d="M193 1462v-1075q0 -342 319 -342q156 0 237.5 92t81.5 250v1075h87v-1059q0 -227 -116 -327.5t-290 -100.5q-406 0 -406 428v1059h87zM276 1538l193 286h86l192 -286h-86l-149 225l-150 -225h-86z" />
<glyph unicode="&#xdc;" horiz-adv-x="1024" d="M193 1462v-1075q0 -342 319 -342q156 0 237.5 92t81.5 250v1075h87v-1059q0 -227 -116 -327.5t-290 -100.5q-406 0 -406 428v1059h87zM606 1583v209h86v-209h-86zM331 1583v209h86v-209h-86z" />
<glyph unicode="&#xdd;" horiz-adv-x="909" d="M412 0v602l-400 860h94l349 -770l356 770h86l-399 -860v-602h-86zM373 1538l159 286h99l-191 -286h-67z" />
<glyph unicode="&#xde;" horiz-adv-x="948" d="M125 0v1462h86v-286h293q121 -2 205 -42t122.5 -105.5t54 -127t15.5 -131.5q0 -186 -110.5 -295.5t-305.5 -109.5h-274v-365h-86zM211 434h283q141 0 231 83t90 253q0 158 -81 247t-228 89h-295v-672z" />
<glyph unicode="&#xdf;" d="M104 0v1106q0 170 87.5 263t244.5 93q145 0 226 -89t81 -236q0 -236 -206 -293v-4q127 -18 202.5 -116.5t75.5 -274.5q0 -455 -428 -461h-45v69h45q174 0 258 93.5t84 295.5q0 180 -79 266.5t-247 86.5h-51v69h54q111 0 181 63.5t70 209.5q0 111 -58 181.5t-171 70.5 q-246 0 -246 -289v-1104h-78z" />
<glyph unicode="&#xe0;" horiz-adv-x="796" d="M680 813v-684q0 -72 47 -72q31 0 49 11v-62q-25 -18 -82 -18q-31 0 -61.5 29.5t-30.5 86.5v68h-4q-25 -86 -100.5 -141.5t-180.5 -55.5q-133 0 -200.5 83t-67.5 216q0 123 52.5 194t164.5 101l232 64q66 18 85 51t19 107q0 135 -54 185t-153 50q-233 0 -233 -260h-78 q0 135 67.5 232.5t235.5 97.5q164 0 228.5 -76t64.5 -207zM602 403v222h-4q-12 -20 -31.5 -33.5t-36 -19t-67.5 -19.5l-158 -43q-92 -25 -131 -81t-39 -155q0 -109 49 -169t148 -60q133 0 201.5 96t68.5 262zM326 1507l160 -286h-68l-190 286h98z" />
<glyph unicode="&#xe1;" horiz-adv-x="796" d="M680 813v-684q0 -72 47 -72q31 0 49 11v-62q-25 -18 -82 -18q-31 0 -61.5 29.5t-30.5 86.5v68h-4q-25 -86 -100.5 -141.5t-180.5 -55.5q-133 0 -200.5 83t-67.5 216q0 123 52.5 194t164.5 101l232 64q66 18 85 51t19 107q0 135 -54 185t-153 50q-233 0 -233 -260h-78 q0 135 67.5 232.5t235.5 97.5q164 0 228.5 -76t64.5 -207zM602 403v222h-4q-12 -20 -31.5 -33.5t-36 -19t-67.5 -19.5l-158 -43q-92 -25 -131 -81t-39 -155q0 -109 49 -169t148 -60q133 0 201.5 96t68.5 262zM318 1221l159 286h99l-191 -286h-67z" />
<glyph unicode="&#xe2;" horiz-adv-x="796" d="M680 813v-684q0 -72 47 -72q31 0 49 11v-62q-25 -18 -82 -18q-31 0 -61.5 29.5t-30.5 86.5v68h-4q-25 -86 -100.5 -141.5t-180.5 -55.5q-133 0 -200.5 83t-67.5 216q0 123 52.5 194t164.5 101l232 64q66 18 85 51t19 107q0 135 -54 185t-153 50q-233 0 -233 -260h-78 q0 135 67.5 232.5t235.5 97.5q164 0 228.5 -76t64.5 -207zM602 403v222h-4q-12 -20 -31.5 -33.5t-36 -19t-67.5 -19.5l-158 -43q-92 -25 -131 -81t-39 -155q0 -109 49 -169t148 -60q133 0 201.5 96t68.5 262zM164 1221l193 286h86l192 -286h-86l-149 225l-150 -225h-86z" />
<glyph unicode="&#xe3;" horiz-adv-x="796" d="M680 813v-684q0 -72 47 -72q31 0 49 11v-62q-25 -18 -82 -18q-31 0 -61.5 29.5t-30.5 86.5v68h-4q-25 -86 -100.5 -141.5t-180.5 -55.5q-133 0 -200.5 83t-67.5 216q0 123 52.5 194t164.5 101l232 64q66 18 85 51t19 107q0 135 -54 185t-153 50q-233 0 -233 -260h-78 q0 135 67.5 232.5t235.5 97.5q164 0 228.5 -76t64.5 -207zM602 403v222h-4q-12 -20 -31.5 -33.5t-36 -19t-67.5 -19.5l-158 -43q-92 -25 -131 -81t-39 -155q0 -109 49 -169t148 -60q133 0 201.5 96t68.5 262zM588 1462h61q0 -61 -33.5 -118.5t-105.5 -57.5 q-51 -2 -120.5 51.5t-100.5 53.5q-78 0 -78 -113h-61q0 59 33.5 116.5t105.5 57.5q55 2 121 -51q70 -53 100 -53q78 -1 78 114z" />
<glyph unicode="&#xe4;" horiz-adv-x="796" d="M680 813v-684q0 -72 47 -72q31 0 49 11v-62q-25 -18 -82 -18q-31 0 -61.5 29.5t-30.5 86.5v68h-4q-25 -86 -100.5 -141.5t-180.5 -55.5q-133 0 -200.5 83t-67.5 216q0 123 52.5 194t164.5 101l232 64q66 18 85 51t19 107q0 135 -54 185t-153 50q-233 0 -233 -260h-78 q0 135 67.5 232.5t235.5 97.5q164 0 228.5 -76t64.5 -207zM602 403v222h-4q-12 -20 -31.5 -33.5t-36 -19t-67.5 -19.5l-158 -43q-92 -25 -131 -81t-39 -155q0 -109 49 -169t148 -60q133 0 201.5 96t68.5 262zM494 1266v209h86v-209h-86zM219 1266v209h86v-209h-86z" />
<glyph unicode="&#xe5;" horiz-adv-x="796" d="M680 813v-684q0 -72 47 -72q31 0 49 11v-62q-25 -18 -82 -18q-31 0 -61.5 29.5t-30.5 86.5v68h-4q-25 -86 -100.5 -141.5t-180.5 -55.5q-133 0 -200.5 83t-67.5 216q0 123 52.5 194t164.5 101l232 64q66 18 85 51t19 107q0 135 -54 185t-153 50q-233 0 -233 -260h-78 q0 135 67.5 232.5t235.5 97.5q164 0 228.5 -76t64.5 -207zM602 403v222h-4q-12 -20 -31.5 -33.5t-36 -19t-67.5 -19.5l-158 -43q-92 -25 -131 -81t-39 -155q0 -109 49 -169t148 -60q133 0 201.5 96t68.5 262zM217 1370q0 76 53.5 129t129 53t129 -53t53.5 -129t-53.5 -129 t-129 -53t-129 53t-53.5 129zM279 1370q0 -51 34.5 -86t86 -35t86 35t34.5 86t-34.5 86t-86 35t-86 -35t-34.5 -86z" />
<glyph unicode="&#xe6;" horiz-adv-x="1253" d="M162 766h-78q0 59 13.5 112.5t44 104.5t92 82t149.5 31q115 0 174 -54.5t78 -128.5h4q68 182 231 183q180 0 257 -140.5t77 -414.5h-557v-60q0 -436 232 -436q70 0 119 35t72.5 89t32.5 99t9 82h78q0 -143 -80 -259t-233 -116q-111 0 -181.5 76t-89.5 174h-4 q-25 -104 -93.5 -178t-191.5 -72q-133 0 -200.5 83t-67.5 216q0 231 211 291l191 49q76 18 97 44t21 106v53q0 119 -50 164t-138 45q-213 0 -219 -260zM135 268q0 -104 49 -163.5t148 -59.5q111 0 174 89t63 239v219h-4q-35 -25 -125 -47l-135 -35q-170 -45 -170 -242z M647 610h471q0 190 -56 303t-177 113q-238 0 -238 -416z" />
<glyph unicode="&#xe7;" horiz-adv-x="796" d="M301 -164l94 139q-176 12 -246.5 161t-70.5 405q0 260 76.5 407.5t269.5 147.5q78 0 139.5 -27t95 -65.5t55 -88t29 -86t7.5 -65.5h-86q0 45 -16.5 99.5t-72 108.5t-139.5 54q-272 0 -272 -489q0 -242 64.5 -367t207.5 -125q68 0 118 38t73.5 92t33 99t9.5 76h86 q0 -45 -13.5 -98t-43 -115.5t-93 -107.5t-149.5 -54l-70 -92l4 -4q27 10 78 10q57 0 99 -37.5t42 -97.5q0 -57 -52 -104t-150.5 -47t-171.5 37l18 45q70 -33 158 -33q129 0 129 100q0 88 -111 88q-51 0 -108 -28z" />
<glyph unicode="&#xe8;" horiz-adv-x="833" d="M164 610h520q0 84 -9 148.5t-34 130t-77 101.5t-132 36q-84 0 -141.5 -43t-83 -114.5t-34.5 -132t-9 -126.5zM770 541h-606q0 -59 2 -98.5t8 -106t22.5 -110.5t43 -89t71.5 -68.5t105 -23.5q78 0 134 35t81.5 89t36 98t10.5 83h78q0 -143 -83 -259t-249 -116 q-197 0 -271.5 147.5t-74.5 442.5q0 252 90 391.5t268 139.5q180 0 257 -140.5t77 -414.5zM359 1507l160 -286h-68l-190 286h98z" />
<glyph unicode="&#xe9;" horiz-adv-x="833" d="M164 610h520q0 84 -9 148.5t-34 130t-77 101.5t-132 36q-84 0 -141.5 -43t-83 -114.5t-34.5 -132t-9 -126.5zM770 541h-606q0 -59 2 -98.5t8 -106t22.5 -110.5t43 -89t71.5 -68.5t105 -23.5q78 0 134 35t81.5 89t36 98t10.5 83h78q0 -143 -83 -259t-249 -116 q-197 0 -271.5 147.5t-74.5 442.5q0 252 90 391.5t268 139.5q180 0 257 -140.5t77 -414.5zM351 1221l159 286h99l-191 -286h-67z" />
<glyph unicode="&#xea;" horiz-adv-x="833" d="M164 610h520q0 84 -9 148.5t-34 130t-77 101.5t-132 36q-84 0 -141.5 -43t-83 -114.5t-34.5 -132t-9 -126.5zM770 541h-606q0 -59 2 -98.5t8 -106t22.5 -110.5t43 -89t71.5 -68.5t105 -23.5q78 0 134 35t81.5 89t36 98t10.5 83h78q0 -143 -83 -259t-249 -116 q-197 0 -271.5 147.5t-74.5 442.5q0 252 90 391.5t268 139.5q180 0 257 -140.5t77 -414.5zM197 1221l193 286h86l192 -286h-86l-149 225l-150 -225h-86z" />
<glyph unicode="&#xeb;" horiz-adv-x="833" d="M164 610h520q0 84 -9 148.5t-34 130t-77 101.5t-132 36q-84 0 -141.5 -43t-83 -114.5t-34.5 -132t-9 -126.5zM770 541h-606q0 -59 2 -98.5t8 -106t22.5 -110.5t43 -89t71.5 -68.5t105 -23.5q78 0 134 35t81.5 89t36 98t10.5 83h78q0 -143 -83 -259t-249 -116 q-197 0 -271.5 147.5t-74.5 442.5q0 252 90 391.5t268 139.5q180 0 257 -140.5t77 -414.5zM527 1266v209h86v-209h-86zM252 1266v209h86v-209h-86z" />
<glyph unicode="&#xec;" horiz-adv-x="303" d="M113 0v1071h77v-1071h-77zM78 1507l160 -286h-68l-190 286h98z" />
<glyph unicode="&#xed;" horiz-adv-x="303" d="M113 0v1071h77v-1071h-77zM70 1221l159 286h99l-191 -286h-67z" />
<glyph unicode="&#xee;" horiz-adv-x="303" d="M113 0v1071h77v-1071h-77zM-84 1221l193 286h86l192 -286h-86l-149 225l-150 -225h-86z" />
<glyph unicode="&#xef;" horiz-adv-x="303" d="M113 0v1071h77v-1071h-77zM246 1266v209h86v-209h-86zM-29 1266v209h86v-209h-86z" />
<glyph unicode="&#xf0;" d="M164 537q0 -244 62.5 -368t210 -124t210 124t62.5 368q0 242 -62.5 365.5t-210 123.5t-210 -123.5t-62.5 -365.5zM227 1315l162 96q-72 72 -158 113l74 45q76 -37 158 -115l164 98l53 -53l-166 -98q281 -305 281 -866q0 -127 -16.5 -222.5t-54.5 -174.5t-109.5 -121 t-176.5 -42q-203 0 -281.5 147.5t-78.5 412.5q0 127 16.5 222t54 175t110.5 122t179 42q115 0 197 -68l4 4q-18 78 -77.5 174.5t-119.5 151.5l-161 -96z" />
<glyph unicode="&#xf1;" horiz-adv-x="833" d="M104 0v1071h78v-162h4q31 80 100.5 133.5t172.5 53.5q121 0 195.5 -72t74.5 -217v-807h-78v770q0 137 -54 196.5t-159 59.5q-119 0 -187.5 -97.5t-68.5 -242.5v-686h-78zM606 1462h61q0 -61 -33.5 -118.5t-105.5 -57.5q-51 -2 -120.5 51.5t-100.5 53.5q-78 0 -78 -113 h-61q0 59 33.5 116.5t105.5 57.5q55 2 121 -51q70 -53 100 -53q78 -1 78 114z" />
<glyph unicode="&#xf2;" d="M795 537q0 -125 -16.5 -220.5t-55.5 -175.5t-112.5 -123t-180.5 -43q-102 0 -174 43t-108.5 123t-53 175.5t-16.5 220.5t16.5 219t55 174t112.5 123t180 43q102 0 174 -43t109 -123t53.5 -175t16.5 -218zM709 535q0 244 -62.5 367.5t-210 123.5t-210 -124t-62.5 -367 q0 -242 62.5 -366t210 -124t210 124t62.5 366zM363 1507l160 -286h-68l-190 286h98z" />
<glyph unicode="&#xf3;" d="M795 537q0 -125 -16.5 -220.5t-55.5 -175.5t-112.5 -123t-180.5 -43q-102 0 -174 43t-108.5 123t-53 175.5t-16.5 220.5t16.5 219t55 174t112.5 123t180 43q102 0 174 -43t109 -123t53.5 -175t16.5 -218zM709 535q0 244 -62.5 367.5t-210 123.5t-210 -124t-62.5 -367 q0 -242 62.5 -366t210 -124t210 124t62.5 366zM355 1221l159 286h99l-191 -286h-67z" />
<glyph unicode="&#xf4;" d="M795 537q0 -125 -16.5 -220.5t-55.5 -175.5t-112.5 -123t-180.5 -43q-102 0 -174 43t-108.5 123t-53 175.5t-16.5 220.5t16.5 219t55 174t112.5 123t180 43q102 0 174 -43t109 -123t53.5 -175t16.5 -218zM709 535q0 244 -62.5 367.5t-210 123.5t-210 -124t-62.5 -367 q0 -242 62.5 -366t210 -124t210 124t62.5 366zM201 1221l193 286h86l192 -286h-86l-149 225l-150 -225h-86z" />
<glyph unicode="&#xf5;" d="M795 537q0 -125 -16.5 -220.5t-55.5 -175.5t-112.5 -123t-180.5 -43q-102 0 -174 43t-108.5 123t-53 175.5t-16.5 220.5t16.5 219t55 174t112.5 123t180 43q102 0 174 -43t109 -123t53.5 -175t16.5 -218zM709 535q0 244 -62.5 367.5t-210 123.5t-210 -124t-62.5 -367 q0 -242 62.5 -366t210 -124t210 124t62.5 366zM625 1462h61q0 -61 -33.5 -118.5t-105.5 -57.5q-51 -2 -120.5 51.5t-100.5 53.5q-78 0 -78 -113h-61q0 59 33.5 116.5t105.5 57.5q55 2 121 -51q70 -53 100 -53q78 -1 78 114z" />
<glyph unicode="&#xf6;" d="M795 537q0 -125 -16.5 -220.5t-55.5 -175.5t-112.5 -123t-180.5 -43q-102 0 -174 43t-108.5 123t-53 175.5t-16.5 220.5t16.5 219t55 174t112.5 123t180 43q102 0 174 -43t109 -123t53.5 -175t16.5 -218zM709 535q0 244 -62.5 367.5t-210 123.5t-210 -124t-62.5 -367 q0 -242 62.5 -366t210 -124t210 124t62.5 366zM531 1266v209h86v-209h-86zM256 1266v209h86v-209h-86z" />
<glyph unicode="&#xf7;" horiz-adv-x="1228" d="M1133 483h-1037v70h1037v-70zM510 932q0 43 30.5 73.5t73.5 30.5t74 -30.5t31 -73.5t-31 -74t-74 -31t-73.5 31t-30.5 74zM510 104q0 43 30.5 74t73.5 31t74 -31t31 -74t-31 -73.5t-74 -30.5t-73.5 30.5t-30.5 73.5z" />
<glyph unicode="&#xf8;" d="M631 926l-342 -832q55 -49 147 -49q147 0 210 124t63 366q0 276 -78 391zM242 145l342 832q-59 49 -148 49q-147 0 -209.5 -124t-62.5 -367q0 -275 78 -390zM147 -88l60 147q-129 127 -129 478q0 125 16.5 219t55 174t112.5 123t180 43q104 0 172 -45l52 123l57 -21 l-57 -141q129 -127 129 -475q0 -125 -16.5 -220.5t-55.5 -175.5t-112.5 -123t-180.5 -43q-98 0 -172 45l-53 -129z" />
<glyph unicode="&#xf9;" horiz-adv-x="833" d="M729 1071v-1071h-78v162h-4q-31 -80 -100.5 -133.5t-171.5 -53.5q-121 0 -196 72t-75 217v807h78v-770q0 -137 54.5 -196.5t158.5 -59.5q119 0 187.5 97.5t68.5 242.5v686h78zM344 1507l160 -286h-68l-190 286h98z" />
<glyph unicode="&#xfa;" horiz-adv-x="833" d="M729 1071v-1071h-78v162h-4q-31 -80 -100.5 -133.5t-171.5 -53.5q-121 0 -196 72t-75 217v807h78v-770q0 -137 54.5 -196.5t158.5 -59.5q119 0 187.5 97.5t68.5 242.5v686h78zM336 1221l159 286h99l-191 -286h-67z" />
<glyph unicode="&#xfb;" horiz-adv-x="833" d="M729 1071v-1071h-78v162h-4q-31 -80 -100.5 -133.5t-171.5 -53.5q-121 0 -196 72t-75 217v807h78v-770q0 -137 54.5 -196.5t158.5 -59.5q119 0 187.5 97.5t68.5 242.5v686h78zM182 1221l193 286h86l192 -286h-86l-149 225l-150 -225h-86z" />
<glyph unicode="&#xfc;" horiz-adv-x="833" d="M729 1071v-1071h-78v162h-4q-31 -80 -100.5 -133.5t-171.5 -53.5q-121 0 -196 72t-75 217v807h78v-770q0 -137 54.5 -196.5t158.5 -59.5q119 0 187.5 97.5t68.5 242.5v686h78zM512 1266v209h86v-209h-86zM237 1266v209h86v-209h-86z" />
<glyph unicode="&#xfd;" horiz-adv-x="720" d="M379 111l237 960h86l-331 -1231q-31 -109 -86.5 -154.5t-151.5 -45.5q-27 0 -80 4v69q57 -4 68 -4q78 0 114.5 33t65.5 135l33 113l-316 1081h86l271 -960h4zM279 1221l159 286h99l-191 -286h-67z" />
<glyph unicode="&#xfe;" d="M109 -360v1822h77v-579h4q72 213 275 213q330 0 330 -557q0 -563 -334 -564q-111 0 -180.5 60.5t-90.5 171.5h-4v-567h-77zM186 539q0 -244 61.5 -369t201.5 -125q100 0 160.5 69.5t80 172t19.5 252.5q0 248 -65.5 367.5t-180.5 119.5q-145 0 -211 -118.5t-66 -368.5z " />
<glyph unicode="&#xff;" horiz-adv-x="720" d="M379 111l237 960h86l-331 -1231q-31 -109 -86.5 -154.5t-151.5 -45.5q-27 0 -80 4v69q57 -4 68 -4q78 0 114.5 33t65.5 135l33 113l-316 1081h86l271 -960h4zM455 1266v209h86v-209h-86zM180 1266v209h86v-209h-86z" />
<glyph unicode="&#x131;" horiz-adv-x="303" d="M113 0v1071h77v-1071h-77z" />
<glyph unicode="&#x141;" d="M125 0v616l-145 -112v94l145 113v751h86v-686l383 295v-94l-383 -295v-604h612v-78h-698z" />
<glyph unicode="&#x142;" horiz-adv-x="303" d="M113 0v664h-4l-109 -136v107l113 135v692h77v-610h5l108 135v-106l-113 -136v-745h-77z" />
<glyph unicode="&#x152;" horiz-adv-x="1593" d="M942 78h610v-78h-696v123h-4q-76 -147 -297 -148q-240 0 -346.5 195t-106.5 561.5t106.5 561t346.5 194.5q96 0 168 -31t96.5 -57.5t32.5 -46.5h4v110h670v-78h-584v-583h541v-78h-541v-645zM856 358v746q0 162 -68.5 237.5t-218.5 75.5q-205 0 -293 -174t-88 -512 t88.5 -512t292.5 -174q150 0 218.5 75.5t68.5 237.5z" />
<glyph unicode="&#x153;" horiz-adv-x="1402" d="M1325 541h-557v-60q0 -436 231 -436q70 0 119 35t72.5 89t33 99t9.5 82h78q0 -143 -80 -259t-234 -116q-115 0 -185.5 78t-84.5 193h-4q-10 -117 -84 -195t-203 -76q-102 0 -175 42t-111.5 121t-55 174.5t-16.5 222.5q0 166 33.5 287.5t115.5 197.5t209 76t200 -77 t87 -192h4q18 113 90 191t189 78q319 0 319 -555zM164 537q0 -244 62.5 -368t209.5 -124q145 0 199.5 121t54.5 371q0 248 -54 368.5t-200 120.5q-272 0 -272 -489zM768 610h471q0 190 -56.5 303t-176.5 113q-238 0 -238 -416z" />
<glyph unicode="&#x160;" horiz-adv-x="985" d="M158 451v-76q0 -143 89 -236.5t242 -93.5q150 0 244 95.5t94 236.5q0 133 -64.5 198.5t-201.5 114.5l-166 58q-152 51 -224.5 133t-72.5 225q0 174 108.5 277.5t282.5 103.5q197 0 294.5 -104.5t97.5 -292.5h-86q0 154 -74 240.5t-223 86.5q-137 0 -225.5 -71.5 t-88.5 -231.5q0 -209 215 -283l217 -75q152 -53 224.5 -136t72.5 -237q0 -188 -121.5 -298t-302.5 -110q-119 0 -205.5 38t-129.5 99.5t-62.5 122t-19.5 119.5v97h86zM451 1538l-193 286h86l150 -225l149 225h86l-192 -286h-86z" />
<glyph unicode="&#x161;" horiz-adv-x="720" d="M641 770h-78v31q0 225 -201 225q-92 0 -149 -49t-57 -150q0 -82 38.5 -130t120.5 -81l164 -61q195 -74 195 -285q0 -131 -89 -213t-220 -82q-84 0 -146.5 25t-94.5 57.5t-50.5 84t-22.5 88t-4 83.5v29h78v-35q0 -262 240 -262q113 0 168 63.5t55 159.5q0 156 -160 219 l-158 64q-102 41 -151 104.5t-49 163.5q0 131 80.5 204t211.5 73q279 0 279 -293v-33zM318 1221l-193 286h86l150 -225l149 225h86l-192 -286h-86z" />
<glyph unicode="&#x178;" horiz-adv-x="909" d="M412 0v602l-400 860h94l349 -770l356 770h86l-399 -860v-602h-86zM549 1583v209h86v-209h-86zM274 1583v209h86v-209h-86z" />
<glyph unicode="&#x17d;" horiz-adv-x="907" d="M35 0v86l743 1298h-700v78h786v-86l-743 -1298h751v-78h-837zM412 1538l-193 286h86l150 -225l149 225h86l-192 -286h-86z" />
<glyph unicode="&#x17e;" horiz-adv-x="684" d="M31 0v70l530 931h-502v70h588v-70l-530 -931h536v-70h-622zM299 1221l-193 286h86l150 -225l149 225h86l-192 -286h-86z" />
<glyph unicode="&#x192;" horiz-adv-x="983" d="M258 831l12 70h211l49 227q16 78 35 128.5t51.5 102.5t87 77.5t132.5 25.5q66 0 102 -12l-16 -70q-37 12 -88 13q-164 0 -211 -230l-56 -262h232l-15 -70h-229l-182 -923q-25 -133 -104 -200.5t-195 -67.5q-41 0 -90 14l14 72q37 -16 74 -17q100 0 149 57.5t74 186.5 l174 878h-211z" />
<glyph unicode="&#x2c6;" horiz-adv-x="303" d="M-84 1221l193 286h86l192 -286h-86l-149 225l-150 -225h-86z" />
<glyph unicode="&#x2c7;" horiz-adv-x="303" d="M109 1221l-193 286h86l150 -225l149 225h86l-192 -286h-86z" />
<glyph unicode="&#x2d8;" horiz-adv-x="303" d="M319 1479h62q0 -88 -45 -152q-63 -86 -184 -86t-175.5 76t-54.5 162h62q0 -74 43 -123q47 -53 125 -53q80 0 123.5 51t43.5 125z" />
<glyph unicode="&#x2d9;" horiz-adv-x="303" d="M109 1266v209h86v-209h-86z" />
<glyph unicode="&#x2da;" horiz-adv-x="303" d="M-31 1370q0 76 53.5 129t129 53t129 -53t53.5 -129t-53.5 -129t-129 -53t-129 53t-53.5 129zM31 1370q0 -51 34.5 -86t86 -35t86 35t34.5 86t-34.5 86t-86 35t-86 -35t-34.5 -86z" />
<glyph unicode="&#x2db;" horiz-adv-x="303" d="M231 0h62q-94 -70 -132 -124t-38 -112q0 -53 27.5 -82.5t76.5 -29.5q53 0 95 33l20 -45q-53 -37 -131 -37q-74 0 -116 37.5t-42 111.5q0 66 47 132.5t131 115.5z" />
<glyph unicode="&#x2dc;" horiz-adv-x="303" d="M340 1462h61q0 -61 -33.5 -118.5t-105.5 -57.5q-51 -2 -120.5 51.5t-100.5 53.5q-78 0 -78 -113h-61q0 59 33.5 116.5t105.5 57.5q55 2 121 -51q70 -53 100 -53q78 -1 78 114z" />
<glyph unicode="&#x2dd;" horiz-adv-x="303" d="M-74 1221l160 286h98l-190 -286h-68zM201 1221l159 286h99l-191 -286h-67z" />
<glyph unicode="&#x3bc;" horiz-adv-x="833" d="M729 1071v-1071h-78v162h-4q-31 -80 -100.5 -133.5t-171.5 -53.5q-113 0 -189 99h-4v-434h-78v1431h78v-770q0 -137 54.5 -196.5t158.5 -59.5q119 0 187.5 97.5t68.5 242.5v686h78z" />
<glyph unicode="&#x2000;" horiz-adv-x="933" />
<glyph unicode="&#x2001;" horiz-adv-x="1869" />
<glyph unicode="&#x2002;" horiz-adv-x="933" />
<glyph unicode="&#x2003;" horiz-adv-x="1869" />
<glyph unicode="&#x2004;" horiz-adv-x="622" />
<glyph unicode="&#x2005;" horiz-adv-x="466" />
<glyph unicode="&#x2006;" horiz-adv-x="311" />
<glyph unicode="&#x2007;" horiz-adv-x="311" />
<glyph unicode="&#x2008;" horiz-adv-x="233" />
<glyph unicode="&#x2009;" horiz-adv-x="372" />
<glyph unicode="&#x200a;" horiz-adv-x="102" />
<glyph unicode="&#x2010;" horiz-adv-x="645" d="M129 522v70h387v-70h-387z" />
<glyph unicode="&#x2011;" horiz-adv-x="645" d="M129 522v70h387v-70h-387z" />
<glyph unicode="&#x2012;" horiz-adv-x="645" d="M129 522v70h387v-70h-387z" />
<glyph unicode="&#x2013;" horiz-adv-x="1024" d="M0 522v70h1024v-70h-1024z" />
<glyph unicode="&#x2014;" horiz-adv-x="2048" d="M0 522v70h2048v-70h-2048z" />
<glyph unicode="&#x2018;" horiz-adv-x="376" d="M137 991v205q0 117 26.5 173t92.5 93v-69q-57 -41 -57 -193h24v-209h-86z" />
<glyph unicode="&#x2019;" horiz-adv-x="376" d="M240 1462v-205q0 -117 -27 -173t-92 -93v70q57 41 57 192h-24v209h86z" />
<glyph unicode="&#x201a;" horiz-adv-x="376" d="M240 209v-205q0 -117 -27 -173t-92 -93v69q57 41 57 193h-24v209h86z" />
<glyph unicode="&#x201c;" horiz-adv-x="606" d="M367 991v205q0 117 26.5 173t91.5 93v-69q-57 -41 -57 -193h25v-209h-86zM137 991v205q0 117 26.5 173t92.5 93v-69q-57 -41 -57 -193h24v-209h-86z" />
<glyph unicode="&#x201d;" horiz-adv-x="606" d="M240 1462v-205q0 -117 -27 -173t-92 -93v70q57 41 57 192h-24v209h86zM469 1462v-205q0 -117 -26.5 -173t-92.5 -93v70q57 41 58 192h-25v209h86z" />
<glyph unicode="&#x201e;" horiz-adv-x="606" d="M240 209v-205q0 -117 -27 -173t-92 -93v69q57 41 57 193h-24v209h86zM469 209v-205q0 -117 -26.5 -173t-92.5 -93v69q57 41 58 193h-25v209h86z" />
<glyph unicode="&#x2020;" horiz-adv-x="983" d="M530 -309h-77v1229h-369v69h369v473h77v-473h369v-69h-369v-1229z" />
<glyph unicode="&#x2021;" horiz-adv-x="983" d="M530 -309h-77v444h-369v70h369v756h-369v69h369v432h77v-432h369v-69h-369v-756h369v-70h-369v-444z" />
<glyph unicode="&#x2022;" horiz-adv-x="1024" d="M147 731.5q0 149.5 106.5 257t258.5 107.5t258.5 -107.5t106.5 -257t-106.5 -257t-258.5 -107.5t-258.5 107.5t-106.5 257z" />
<glyph unicode="&#x2026;" horiz-adv-x="2048" d="M299 0v209h86v-209h-86zM981 0v209h86v-209h-86zM1663 0v209h86v-209h-86z" />
<glyph unicode="&#x202f;" horiz-adv-x="372" />
<glyph unicode="&#x2030;" horiz-adv-x="1972" d="M1804 338q0 170 -45 235.5t-135 65.5q-180 0 -180 -301q0 -170 45 -235.5t135 -65.5q86 0 132 65.5t48 235.5zM326 -25l620 1475h70l-621 -1475h-69zM528 1087q0 170 -45 236t-135 66q-180 0 -180 -302q0 -170 45 -235.5t135 -65.5q86 0 132 65.5t48 235.5zM1374 338 q0 362 250 362q139 0 194.5 -89t55.5 -273q0 -362 -250 -363q-141 0 -195.5 88.5t-54.5 274.5zM98 1087q0 362 250 363q139 0 194.5 -89t55.5 -274q0 -362 -250 -362q-141 0 -195.5 88t-54.5 274zM752 338q0 362 249 362q139 0 194.5 -89t55.5 -273q0 -362 -250 -363 q-141 0 -195 88.5t-54 274.5zM1182 338q0 170 -45 235.5t-136 65.5q-180 0 -180 -301q0 -170 45 -235.5t135 -65.5q86 0 132.5 65.5t48.5 235.5z" />
<glyph unicode="&#x2039;" horiz-adv-x="454" d="M344 238l-233 276v78l233 285v-103l-172 -221l172 -213v-102z" />
<glyph unicode="&#x203a;" horiz-adv-x="454" d="M111 238v102l172 221l-172 213v103l233 -277v-78z" />
<glyph unicode="&#x2044;" horiz-adv-x="342" d="M-334 -66l940 1557h70l-940 -1557h-70z" />
<glyph unicode="&#x205f;" horiz-adv-x="466" />
<glyph unicode="&#x2122;" horiz-adv-x="2048" d="M418 618v775h-291v69h651v-69h-291v-775h-69zM1737 618v775h-4l-338 -775h-37l-338 775h-4v-775h-70v844h119l311 -712l316 712h114v-844h-69z" />
<glyph unicode="&#x2212;" horiz-adv-x="1228" d="M1133 483h-1037v70h1037v-70z" />
<glyph unicode="&#xe000;" horiz-adv-x="1070" d="M0 1070h1070v-1070h-1070v1070z" />
<glyph unicode="&#xfb01;" horiz-adv-x="757" d="M162 0v1001h-146v70h146v178q0 213 188 213q53 0 80 -6v-70q-29 6 -68 7q-123 0 -122 -140v-182h178v-70h-178v-1001h-78zM567 0v1071h78v-1071h-78zM567 1253v209h78v-209h-78z" />
<glyph unicode="&#xfb02;" horiz-adv-x="757" d="M162 0v1001h-146v70h146v178q0 213 188 213q53 0 80 -6v-70q-29 6 -68 7q-123 0 -122 -140v-182h178v-70h-178v-1001h-78zM567 0v1462h78v-1462h-78z" />
<glyph unicode="&#xfffd;" horiz-adv-x="491" />
</font>
</defs>
</svg>
